<?xml version="1.0" encoding="UTF-8" standalone="no"?>
<!DOCTYPE svg PUBLIC "-//W3C//DTD SVG 1.1//EN"
 "http://www.w3.org/Graphics/SVG/1.1/DTD/svg11.dtd">
<!-- Generated by graphviz version 2.47.3 (20210619.1520)
 -->
<!-- Title: dependencies Pages: 1 -->
<svg width="302pt" height="247pt"
 viewBox="0.00 0.00 302.00 246.80" xmlns="http://www.w3.org/2000/svg" xmlns:xlink="http://www.w3.org/1999/xlink">
<g id="graph0" class="graph" transform="scale(1 1) rotate(0) translate(4 242.8)">
<title>dependencies</title>
<polygon fill="white" stroke="transparent" points="-4,4 -4,-242.8 298,-242.8 298,4 -4,4"/>
<text text-anchor="middle" x="147" y="-8.2" font-family="sans-serif" font-size="14.00">dependencies</text>
<g id="clust1" class="cluster">
<title>cluster_ChartModule</title>
<polygon fill="none" stroke="black" stroke-dasharray="1,5" points="8,-32.8 8,-230.8 286,-230.8 286,-32.8 8,-32.8"/>
</g>
<g id="clust2" class="cluster">
<title>cluster_ChartModule_declarations</title>
<polygon fill="none" stroke="black" points="162,-40.8 162,-92.8 278,-92.8 278,-40.8 162,-40.8"/>
</g>
<g id="clust7" class="cluster">
<title>cluster_ChartModule_providers</title>
<polygon fill="none" stroke="black" points="16,-40.8 16,-92.8 154,-92.8 154,-40.8 16,-40.8"/>
</g>
<g id="clust5" class="cluster">
<title>cluster_ChartModule_exports</title>
<polygon fill="none" stroke="black" points="93,-170.8 93,-222.8 211,-222.8 211,-170.8 93,-170.8"/>
</g>
<!-- ChartDirective -->
<g id="node1" class="node">
<title>ChartDirective</title>
<polygon fill="#ffffb3" stroke="black" points="269.69,-84.8 170.31,-84.8 170.31,-48.8 269.69,-48.8 269.69,-84.8"/>
<text text-anchor="middle" x="220" y="-62.6" font-family="Times,serif" font-size="14.00">ChartDirective</text>
</g>
<!-- ChartModule -->
<g id="node2" class="node">
<title>ChartModule</title>
<polygon fill="#8dd3c7" stroke="black" points="197.15,-149.8 194.15,-153.8 173.15,-153.8 170.15,-149.8 106.85,-149.8 106.85,-113.8 197.15,-113.8 197.15,-149.8"/>
<text text-anchor="middle" x="152" y="-127.6" font-family="Times,serif" font-size="14.00">ChartModule</text>
</g>
<!-- ChartDirective&#45;&gt;ChartModule -->
<g id="edge1" class="edge">
<title>ChartDirective&#45;&gt;ChartModule</title>
<path fill="none" stroke="black" d="M183.87,-84.91C183.87,-84.91 183.87,-103.79 183.87,-103.79"/>
<polygon fill="black" stroke="black" points="180.37,-103.79 183.87,-113.79 187.37,-103.79 180.37,-103.79"/>
</g>
<!-- ChartDirective  -->
<g id="node3" class="node">
<title>ChartDirective </title>
<polygon fill="#fb8072" stroke="black" points="203.19,-214.8 100.81,-214.8 100.81,-178.8 203.19,-178.8 203.19,-214.8"/>
<text text-anchor="middle" x="152" y="-192.6" font-family="Times,serif" font-size="14.00">ChartDirective </text>
</g>
<!-- ChartModule&#45;&gt;ChartDirective  -->
<g id="edge2" class="edge">
<title>ChartModule&#45;&gt;ChartDirective </title>
<path fill="none" stroke="black" stroke-dasharray="5,2" d="M152,-149.91C152,-149.91 152,-168.79 152,-168.79"/>
<polygon fill="black" stroke="black" points="148.5,-168.79 152,-178.79 155.5,-168.79 148.5,-168.79"/>
</g>
<!-- ChartService -->
<g id="node4" class="node">
<title>ChartService</title>
<ellipse fill="#fdb462" stroke="black" cx="85" cy="-66.8" rx="61.39" ry="18"/>
<text text-anchor="middle" x="85" y="-62.6" font-family="Times,serif" font-size="14.00">ChartService</text>
</g>
<!-- ChartService&#45;&gt;ChartModule -->
<g id="edge3" class="edge">
<title>ChartService&#45;&gt;ChartModule</title>
<path fill="none" stroke="black" d="M126.56,-80.27C126.56,-80.27 126.56,-103.66 126.56,-103.66"/>
<polygon fill="black" stroke="black" points="123.06,-103.66 126.56,-113.66 130.06,-103.66 123.06,-103.66"/>
</g>
</g>
</svg>
