<?xml version="1.0" encoding="UTF-8" standalone="no"?>
<!DOCTYPE svg PUBLIC "-//W3C//DTD SVG 1.1//EN"
 "http://www.w3.org/Graphics/SVG/1.1/DTD/svg11.dtd">
<!-- Generated by graphviz version 2.47.3 (20210619.1520)
 -->
<!-- Title: dependencies Pages: 1 -->
<svg width="578pt" height="247pt"
 viewBox="0.00 0.00 578.00 246.80" xmlns="http://www.w3.org/2000/svg" xmlns:xlink="http://www.w3.org/1999/xlink">
<g id="graph0" class="graph" transform="scale(1 1) rotate(0) translate(4 242.8)">
<title>dependencies</title>
<polygon fill="white" stroke="transparent" points="-4,4 -4,-242.8 574,-242.8 574,4 -4,4"/>
<text text-anchor="middle" x="285" y="-8.2" font-family="sans-serif" font-size="14.00">dependencies</text>
<g id="clust1" class="cluster">
<title>cluster_WalletModule</title>
<polygon fill="none" stroke="black" stroke-dasharray="1,5" points="8,-32.8 8,-230.8 562,-230.8 562,-32.8 8,-32.8"/>
</g>
<g id="clust6" class="cluster">
<title>cluster_WalletModule_imports</title>
<polygon fill="none" stroke="black" points="426,-40.8 426,-92.8 554,-92.8 554,-40.8 426,-40.8"/>
</g>
<g id="clust7" class="cluster">
<title>cluster_WalletModule_exports</title>
<polygon fill="none" stroke="black" points="147,-170.8 147,-222.8 420,-222.8 420,-170.8 147,-170.8"/>
</g>
<g id="clust2" class="cluster">
<title>cluster_WalletModule_declarations</title>
<polygon fill="none" stroke="black" points="16,-40.8 16,-92.8 418,-92.8 418,-40.8 16,-40.8"/>
</g>
<!-- NewComponent -->
<g id="node1" class="node">
<title>NewComponent</title>
<polygon fill="#ffffb3" stroke="black" points="409.76,-84.8 302.24,-84.8 302.24,-48.8 409.76,-48.8 409.76,-84.8"/>
<text text-anchor="middle" x="356" y="-62.6" font-family="Times,serif" font-size="14.00">NewComponent</text>
</g>
<!-- WalletModule -->
<g id="node4" class="node">
<title>WalletModule</title>
<polygon fill="#8dd3c7" stroke="black" points="335.37,-149.8 332.37,-153.8 311.37,-153.8 308.37,-149.8 238.63,-149.8 238.63,-113.8 335.37,-113.8 335.37,-149.8"/>
<text text-anchor="middle" x="287" y="-127.6" font-family="Times,serif" font-size="14.00">WalletModule</text>
</g>
<!-- NewComponent&#45;&gt;WalletModule -->
<g id="edge1" class="edge">
<title>NewComponent&#45;&gt;WalletModule</title>
<path fill="none" stroke="black" d="M318.78,-84.91C318.78,-84.91 318.78,-103.79 318.78,-103.79"/>
<polygon fill="black" stroke="black" points="315.28,-103.79 318.78,-113.79 322.28,-103.79 315.28,-103.79"/>
</g>
<!-- RestoreComponent -->
<g id="node2" class="node">
<title>RestoreComponent</title>
<polygon fill="#ffffb3" stroke="black" points="284.09,-84.8 159.91,-84.8 159.91,-48.8 284.09,-48.8 284.09,-84.8"/>
<text text-anchor="middle" x="222" y="-62.6" font-family="Times,serif" font-size="14.00">RestoreComponent</text>
</g>
<!-- RestoreComponent&#45;&gt;WalletModule -->
<g id="edge2" class="edge">
<title>RestoreComponent&#45;&gt;WalletModule</title>
<path fill="none" stroke="black" d="M261.31,-84.91C261.31,-84.91 261.31,-103.79 261.31,-103.79"/>
<polygon fill="black" stroke="black" points="257.81,-103.79 261.31,-113.79 264.81,-103.79 257.81,-103.79"/>
</g>
<!-- WalletComponent -->
<g id="node3" class="node">
<title>WalletComponent</title>
<polygon fill="#ffffb3" stroke="black" points="142.15,-84.8 23.85,-84.8 23.85,-48.8 142.15,-48.8 142.15,-84.8"/>
<text text-anchor="middle" x="83" y="-62.6" font-family="Times,serif" font-size="14.00">WalletComponent</text>
</g>
<!-- WalletComponent&#45;&gt;WalletModule -->
<g id="edge3" class="edge">
<title>WalletComponent&#45;&gt;WalletModule</title>
<path fill="none" stroke="black" d="M83,-84.91C83,-104.14 83,-131.8 83,-131.8 83,-131.8 228.4,-131.8 228.4,-131.8"/>
<polygon fill="black" stroke="black" points="228.4,-135.3 238.4,-131.8 228.4,-128.3 228.4,-135.3"/>
</g>
<!-- NewComponent  -->
<g id="node6" class="node">
<title>NewComponent </title>
<polygon fill="#fb8072" stroke="black" points="411.76,-214.8 300.24,-214.8 300.24,-178.8 411.76,-178.8 411.76,-214.8"/>
<text text-anchor="middle" x="356" y="-192.6" font-family="Times,serif" font-size="14.00">NewComponent </text>
</g>
<!-- WalletModule&#45;&gt;NewComponent  -->
<g id="edge5" class="edge">
<title>WalletModule&#45;&gt;NewComponent </title>
<path fill="none" stroke="black" stroke-dasharray="5,2" d="M317.9,-149.91C317.9,-149.91 317.9,-168.79 317.9,-168.79"/>
<polygon fill="black" stroke="black" points="314.4,-168.79 317.9,-178.79 321.4,-168.79 314.4,-168.79"/>
</g>
<!-- RestoreComponent  -->
<g id="node7" class="node">
<title>RestoreComponent </title>
<polygon fill="#fb8072" stroke="black" points="282.59,-214.8 155.41,-214.8 155.41,-178.8 282.59,-178.8 282.59,-214.8"/>
<text text-anchor="middle" x="219" y="-192.6" font-family="Times,serif" font-size="14.00">RestoreComponent </text>
</g>
<!-- WalletModule&#45;&gt;RestoreComponent  -->
<g id="edge6" class="edge">
<title>WalletModule&#45;&gt;RestoreComponent </title>
<path fill="none" stroke="black" stroke-dasharray="5,2" d="M260.68,-149.91C260.68,-149.91 260.68,-168.79 260.68,-168.79"/>
<polygon fill="black" stroke="black" points="257.18,-168.79 260.68,-178.79 264.18,-168.79 257.18,-168.79"/>
</g>
<!-- TranslateModule -->
<g id="node5" class="node">
<title>TranslateModule</title>
<polygon fill="#8dd3c7" stroke="black" points="545.63,-84.8 542.63,-88.8 521.63,-88.8 518.63,-84.8 434.37,-84.8 434.37,-48.8 545.63,-48.8 545.63,-84.8"/>
<text text-anchor="middle" x="490" y="-62.6" font-family="Times,serif" font-size="14.00">TranslateModule</text>
</g>
<!-- TranslateModule&#45;&gt;WalletModule -->
<g id="edge4" class="edge">
<title>TranslateModule&#45;&gt;WalletModule</title>
<path fill="none" stroke="black" d="M490,-84.91C490,-104.14 490,-131.8 490,-131.8 490,-131.8 345.37,-131.8 345.37,-131.8"/>
<polygon fill="black" stroke="black" points="345.37,-128.3 335.37,-131.8 345.37,-135.3 345.37,-128.3"/>
</g>
</g>
</svg>
