<?xml version="1.0" encoding="UTF-8" standalone="no"?>
<!DOCTYPE svg PUBLIC "-//W3C//DTD SVG 1.1//EN"
 "http://www.w3.org/Graphics/SVG/1.1/DTD/svg11.dtd">
<!-- Generated by graphviz version 2.47.3 (20210619.1520)
 -->
<!-- Title: dependencies Pages: 1 -->
<svg width="603pt" height="174pt"
 viewBox="0.00 0.00 603.00 173.80" xmlns="http://www.w3.org/2000/svg" xmlns:xlink="http://www.w3.org/1999/xlink">
<g id="graph0" class="graph" transform="scale(1 1) rotate(0) translate(4 169.8)">
<title>dependencies</title>
<polygon fill="white" stroke="transparent" points="-4,4 -4,-169.8 599,-169.8 599,4 -4,4"/>
<text text-anchor="middle" x="297.5" y="-8.2" font-family="sans-serif" font-size="14.00">dependencies</text>
<g id="clust1" class="cluster">
<title>cluster_WalletModule</title>
<polygon fill="none" stroke="black" stroke-dasharray="1,5" points="8,-32.8 8,-157.8 587,-157.8 587,-32.8 8,-32.8"/>
</g>
<g id="clust2" class="cluster">
<title>cluster_WalletModule_declarations</title>
<polygon fill="none" stroke="black" points="16,-40.8 16,-92.8 579,-92.8 579,-40.8 16,-40.8"/>
</g>
<!-- BackupComponent -->
<g id="node1" class="node">
<title>BackupComponent</title>
<polygon fill="#ffffb3" stroke="black" points="571.1,-84.8 446.9,-84.8 446.9,-48.8 571.1,-48.8 571.1,-84.8"/>
<text text-anchor="middle" x="509" y="-62.6" font-family="Times,serif" font-size="14.00">BackupComponent</text>
</g>
<!-- WalletModule -->
<g id="node5" class="node">
<title>WalletModule</title>
<polygon fill="#8dd3c7" stroke="black" points="343.37,-149.8 340.37,-153.8 319.37,-153.8 316.37,-149.8 246.63,-149.8 246.63,-113.8 343.37,-113.8 343.37,-149.8"/>
<text text-anchor="middle" x="295" y="-127.6" font-family="Times,serif" font-size="14.00">WalletModule</text>
</g>
<!-- BackupComponent&#45;&gt;WalletModule -->
<g id="edge1" class="edge">
<title>BackupComponent&#45;&gt;WalletModule</title>
<path fill="none" stroke="black" d="M509,-84.91C509,-104.14 509,-131.8 509,-131.8 509,-131.8 353.56,-131.8 353.56,-131.8"/>
<polygon fill="black" stroke="black" points="353.56,-128.3 343.56,-131.8 353.56,-135.3 353.56,-128.3"/>
</g>
<!-- RestoreComponent -->
<g id="node2" class="node">
<title>RestoreComponent</title>
<polygon fill="#ffffb3" stroke="black" points="429.09,-84.8 304.91,-84.8 304.91,-48.8 429.09,-48.8 429.09,-84.8"/>
<text text-anchor="middle" x="367" y="-62.6" font-family="Times,serif" font-size="14.00">RestoreComponent</text>
</g>
<!-- RestoreComponent&#45;&gt;WalletModule -->
<g id="edge2" class="edge">
<title>RestoreComponent&#45;&gt;WalletModule</title>
<path fill="none" stroke="black" d="M324.19,-84.91C324.19,-84.91 324.19,-103.79 324.19,-103.79"/>
<polygon fill="black" stroke="black" points="320.69,-103.79 324.19,-113.79 327.69,-103.79 320.69,-103.79"/>
</g>
<!-- SettingsComponent -->
<g id="node3" class="node">
<title>SettingsComponent</title>
<polygon fill="#ffffb3" stroke="black" points="287.45,-84.8 160.55,-84.8 160.55,-48.8 287.45,-48.8 287.45,-84.8"/>
<text text-anchor="middle" x="224" y="-62.6" font-family="Times,serif" font-size="14.00">SettingsComponent</text>
</g>
<!-- SettingsComponent&#45;&gt;WalletModule -->
<g id="edge3" class="edge">
<title>SettingsComponent&#45;&gt;WalletModule</title>
<path fill="none" stroke="black" d="M266.9,-84.91C266.9,-84.91 266.9,-103.79 266.9,-103.79"/>
<polygon fill="black" stroke="black" points="263.4,-103.79 266.9,-113.79 270.4,-103.79 263.4,-103.79"/>
</g>
<!-- WalletComponent -->
<g id="node4" class="node">
<title>WalletComponent</title>
<polygon fill="#ffffb3" stroke="black" points="142.15,-84.8 23.85,-84.8 23.85,-48.8 142.15,-48.8 142.15,-84.8"/>
<text text-anchor="middle" x="83" y="-62.6" font-family="Times,serif" font-size="14.00">WalletComponent</text>
</g>
<!-- WalletComponent&#45;&gt;WalletModule -->
<g id="edge4" class="edge">
<title>WalletComponent&#45;&gt;WalletModule</title>
<path fill="none" stroke="black" d="M83,-84.91C83,-104.14 83,-131.8 83,-131.8 83,-131.8 236.63,-131.8 236.63,-131.8"/>
<polygon fill="black" stroke="black" points="236.63,-135.3 246.63,-131.8 236.63,-128.3 236.63,-135.3"/>
</g>
</g>
</svg>
