<?xml version="1.0" encoding="UTF-8" standalone="no"?>
<!DOCTYPE svg PUBLIC "-//W3C//DTD SVG 1.1//EN"
 "http://www.w3.org/Graphics/SVG/1.1/DTD/svg11.dtd">
<!-- Generated by graphviz version 2.47.3 (20210619.1520)
 -->
<!-- Title: dependencies Pages: 1 -->
<svg width="993pt" height="247pt"
 viewBox="0.00 0.00 993.00 246.80" xmlns="http://www.w3.org/2000/svg" xmlns:xlink="http://www.w3.org/1999/xlink">
<g id="graph0" class="graph" transform="scale(1 1) rotate(0) translate(4 242.8)">
<title>dependencies</title>
<polygon fill="white" stroke="transparent" points="-4,4 -4,-242.8 989,-242.8 989,4 -4,4"/>
<text text-anchor="middle" x="492.5" y="-8.2" font-family="sans-serif" font-size="14.00">dependencies</text>
<g id="clust1" class="cluster">
<title>cluster_WalletModule</title>
<polygon fill="none" stroke="black" stroke-dasharray="1,5" points="8,-32.8 8,-230.8 977,-230.8 977,-32.8 8,-32.8"/>
</g>
<g id="clust8" class="cluster">
<title>cluster_WalletModule_imports</title>
<polygon fill="none" stroke="black" points="727,-40.8 727,-92.8 969,-92.8 969,-40.8 727,-40.8"/>
</g>
<g id="clust9" class="cluster">
<title>cluster_WalletModule_exports</title>
<polygon fill="none" stroke="black" points="214,-170.8 214,-222.8 794,-222.8 794,-170.8 214,-170.8"/>
</g>
<g id="clust2" class="cluster">
<title>cluster_WalletModule_declarations</title>
<polygon fill="none" stroke="black" points="16,-40.8 16,-92.8 719,-92.8 719,-40.8 16,-40.8"/>
</g>
<!-- NewComponent -->
<g id="node1" class="node">
<title>NewComponent</title>
<polygon fill="#ffffb3" stroke="black" points="710.76,-84.8 603.24,-84.8 603.24,-48.8 710.76,-48.8 710.76,-84.8"/>
<text text-anchor="middle" x="657" y="-62.6" font-family="Times,serif" font-size="14.00">NewComponent</text>
</g>
<!-- WalletModule -->
<g id="node6" class="node">
<title>WalletModule</title>
<polygon fill="#8dd3c7" stroke="black" points="577.37,-149.8 574.37,-153.8 553.37,-153.8 550.37,-149.8 480.63,-149.8 480.63,-113.8 577.37,-113.8 577.37,-149.8"/>
<text text-anchor="middle" x="529" y="-127.6" font-family="Times,serif" font-size="14.00">WalletModule</text>
</g>
<!-- NewComponent&#45;&gt;WalletModule -->
<g id="edge1" class="edge">
<title>NewComponent&#45;&gt;WalletModule</title>
<path fill="none" stroke="black" d="M629.85,-84.81C629.85,-100.85 629.85,-121.8 629.85,-121.8 629.85,-121.8 587.65,-121.8 587.65,-121.8"/>
<polygon fill="black" stroke="black" points="587.65,-118.3 577.65,-121.8 587.65,-125.3 587.65,-118.3"/>
</g>
<!-- OpenComponent -->
<g id="node2" class="node">
<title>OpenComponent</title>
<polygon fill="#ffffb3" stroke="black" points="584.65,-84.8 473.35,-84.8 473.35,-48.8 584.65,-48.8 584.65,-84.8"/>
<text text-anchor="middle" x="529" y="-62.6" font-family="Times,serif" font-size="14.00">OpenComponent</text>
</g>
<!-- OpenComponent&#45;&gt;WalletModule -->
<g id="edge2" class="edge">
<title>OpenComponent&#45;&gt;WalletModule</title>
<path fill="none" stroke="black" d="M529,-84.91C529,-84.91 529,-103.79 529,-103.79"/>
<polygon fill="black" stroke="black" points="525.5,-103.79 529,-113.79 532.5,-103.79 525.5,-103.79"/>
</g>
<!-- RestoreComponent -->
<g id="node3" class="node">
<title>RestoreComponent</title>
<polygon fill="#ffffb3" stroke="black" points="455.09,-84.8 330.91,-84.8 330.91,-48.8 455.09,-48.8 455.09,-84.8"/>
<text text-anchor="middle" x="393" y="-62.6" font-family="Times,serif" font-size="14.00">RestoreComponent</text>
</g>
<!-- RestoreComponent&#45;&gt;WalletModule -->
<g id="edge3" class="edge">
<title>RestoreComponent&#45;&gt;WalletModule</title>
<path fill="none" stroke="black" d="M425.62,-84.81C425.62,-100.85 425.62,-121.8 425.62,-121.8 425.62,-121.8 470.34,-121.8 470.34,-121.8"/>
<polygon fill="black" stroke="black" points="470.34,-125.3 480.34,-121.8 470.34,-118.3 470.34,-125.3"/>
</g>
<!-- TransactionsComponent -->
<g id="node4" class="node">
<title>TransactionsComponent</title>
<polygon fill="#ffffb3" stroke="black" points="313.36,-84.8 160.64,-84.8 160.64,-48.8 313.36,-48.8 313.36,-84.8"/>
<text text-anchor="middle" x="237" y="-62.6" font-family="Times,serif" font-size="14.00">TransactionsComponent</text>
</g>
<!-- TransactionsComponent&#45;&gt;WalletModule -->
<g id="edge4" class="edge">
<title>TransactionsComponent&#45;&gt;WalletModule</title>
<path fill="none" stroke="black" d="M267.62,-85.07C267.62,-103.36 267.62,-128.8 267.62,-128.8 267.62,-128.8 470.45,-128.8 470.45,-128.8"/>
<polygon fill="black" stroke="black" points="470.45,-132.3 480.45,-128.8 470.45,-125.3 470.45,-132.3"/>
</g>
<!-- WalletComponent -->
<g id="node5" class="node">
<title>WalletComponent</title>
<polygon fill="#ffffb3" stroke="black" points="142.15,-84.8 23.85,-84.8 23.85,-48.8 142.15,-48.8 142.15,-84.8"/>
<text text-anchor="middle" x="83" y="-62.6" font-family="Times,serif" font-size="14.00">WalletComponent</text>
</g>
<!-- WalletComponent&#45;&gt;WalletModule -->
<g id="edge5" class="edge">
<title>WalletComponent&#45;&gt;WalletModule</title>
<path fill="none" stroke="black" d="M83,-84.93C83,-105.37 83,-135.8 83,-135.8 83,-135.8 470.42,-135.8 470.42,-135.8"/>
<polygon fill="black" stroke="black" points="470.42,-139.3 480.42,-135.8 470.42,-132.3 470.42,-139.3"/>
</g>
<!-- NewComponent  -->
<g id="node9" class="node">
<title>NewComponent </title>
<polygon fill="#fb8072" stroke="black" points="785.76,-214.8 674.24,-214.8 674.24,-178.8 785.76,-178.8 785.76,-214.8"/>
<text text-anchor="middle" x="730" y="-192.6" font-family="Times,serif" font-size="14.00">NewComponent </text>
</g>
<!-- WalletModule&#45;&gt;NewComponent  -->
<g id="edge8" class="edge">
<title>WalletModule&#45;&gt;NewComponent </title>
<path fill="none" stroke="black" stroke-dasharray="5,2" d="M577.65,-142.8C625.88,-142.8 692.62,-142.8 692.62,-142.8 692.62,-142.8 692.62,-168.52 692.62,-168.52"/>
<polygon fill="black" stroke="black" points="689.13,-168.52 692.62,-178.52 696.13,-168.52 689.13,-168.52"/>
</g>
<!-- OpenComponent  -->
<g id="node10" class="node">
<title>OpenComponent </title>
<polygon fill="#fb8072" stroke="black" points="656.65,-214.8 541.35,-214.8 541.35,-178.8 656.65,-178.8 656.65,-214.8"/>
<text text-anchor="middle" x="599" y="-192.6" font-family="Times,serif" font-size="14.00">OpenComponent </text>
</g>
<!-- WalletModule&#45;&gt;OpenComponent  -->
<g id="edge9" class="edge">
<title>WalletModule&#45;&gt;OpenComponent </title>
<path fill="none" stroke="black" stroke-dasharray="5,2" d="M559.43,-149.91C559.43,-149.91 559.43,-168.79 559.43,-168.79"/>
<polygon fill="black" stroke="black" points="555.93,-168.79 559.43,-178.79 562.93,-168.79 555.93,-168.79"/>
</g>
<!-- RestoreComponent  -->
<g id="node11" class="node">
<title>RestoreComponent </title>
<polygon fill="#fb8072" stroke="black" points="523.59,-214.8 396.41,-214.8 396.41,-178.8 523.59,-178.8 523.59,-214.8"/>
<text text-anchor="middle" x="460" y="-192.6" font-family="Times,serif" font-size="14.00">RestoreComponent </text>
</g>
<!-- WalletModule&#45;&gt;RestoreComponent  -->
<g id="edge10" class="edge">
<title>WalletModule&#45;&gt;RestoreComponent </title>
<path fill="none" stroke="black" stroke-dasharray="5,2" d="M502.18,-149.91C502.18,-149.91 502.18,-168.79 502.18,-168.79"/>
<polygon fill="black" stroke="black" points="498.68,-168.79 502.18,-178.79 505.68,-168.79 498.68,-168.79"/>
</g>
<!-- TransactionsComponent  -->
<g id="node12" class="node">
<title>TransactionsComponent </title>
<polygon fill="#fb8072" stroke="black" points="378.36,-214.8 221.64,-214.8 221.64,-178.8 378.36,-178.8 378.36,-214.8"/>
<text text-anchor="middle" x="300" y="-192.6" font-family="Times,serif" font-size="14.00">TransactionsComponent </text>
</g>
<!-- WalletModule&#45;&gt;TransactionsComponent  -->
<g id="edge11" class="edge">
<title>WalletModule&#45;&gt;TransactionsComponent </title>
<path fill="none" stroke="black" stroke-dasharray="5,2" d="M480.41,-142.8C428.8,-142.8 354.57,-142.8 354.57,-142.8 354.57,-142.8 354.57,-168.52 354.57,-168.52"/>
<polygon fill="black" stroke="black" points="351.07,-168.52 354.57,-178.52 358.07,-168.52 351.07,-168.52"/>
</g>
<!-- ModalModule -->
<g id="node7" class="node">
<title>ModalModule</title>
<polygon fill="#8dd3c7" stroke="black" points="961.1,-84.8 958.1,-88.8 937.1,-88.8 934.1,-84.8 864.9,-84.8 864.9,-48.8 961.1,-48.8 961.1,-84.8"/>
<text text-anchor="middle" x="913" y="-62.6" font-family="Times,serif" font-size="14.00">ModalModule</text>
</g>
<!-- ModalModule&#45;&gt;WalletModule -->
<g id="edge6" class="edge">
<title>ModalModule&#45;&gt;WalletModule</title>
<path fill="none" stroke="black" d="M913,-84.93C913,-105.37 913,-135.8 913,-135.8 913,-135.8 587.63,-135.8 587.63,-135.8"/>
<polygon fill="black" stroke="black" points="587.63,-132.3 577.63,-135.8 587.63,-139.3 587.63,-132.3"/>
</g>
<!-- TranslateModule -->
<g id="node8" class="node">
<title>TranslateModule</title>
<polygon fill="#8dd3c7" stroke="black" points="846.63,-84.8 843.63,-88.8 822.63,-88.8 819.63,-84.8 735.37,-84.8 735.37,-48.8 846.63,-48.8 846.63,-84.8"/>
<text text-anchor="middle" x="791" y="-62.6" font-family="Times,serif" font-size="14.00">TranslateModule</text>
</g>
<!-- TranslateModule&#45;&gt;WalletModule -->
<g id="edge7" class="edge">
<title>TranslateModule&#45;&gt;WalletModule</title>
<path fill="none" stroke="black" d="M760.41,-85.07C760.41,-103.36 760.41,-128.8 760.41,-128.8 760.41,-128.8 587.51,-128.8 587.51,-128.8"/>
<polygon fill="black" stroke="black" points="587.51,-125.3 577.51,-128.8 587.51,-132.3 587.51,-125.3"/>
</g>
</g>
</svg>
