<?xml version="1.0" encoding="UTF-8" standalone="no"?>
<!DOCTYPE svg PUBLIC "-//W3C//DTD SVG 1.1//EN"
 "http://www.w3.org/Graphics/SVG/1.1/DTD/svg11.dtd">
<!-- Generated by graphviz version 2.47.3 (20210619.1520)
 -->
<!-- Title: dependencies Pages: 1 -->
<svg width="578pt" height="247pt"
 viewBox="0.00 0.00 578.00 246.80" xmlns="http://www.w3.org/2000/svg" xmlns:xlink="http://www.w3.org/1999/xlink">
<g id="graph0" class="graph" transform="scale(1 1) rotate(0) translate(4 242.8)">
<title>dependencies</title>
<polygon fill="white" stroke="transparent" points="-4,4 -4,-242.8 574,-242.8 574,4 -4,4"/>
<text text-anchor="middle" x="285" y="-8.2" font-family="sans-serif" font-size="14.00">dependencies</text>
<g id="clust1" class="cluster">
<title>cluster_WalletModule</title>
<polygon fill="none" stroke="black" stroke-dasharray="1,5" points="8,-32.8 8,-230.8 562,-230.8 562,-32.8 8,-32.8"/>
</g>
<g id="clust2" class="cluster">
<title>cluster_WalletModule_declarations</title>
<polygon fill="none" stroke="black" points="152,-40.8 152,-92.8 554,-92.8 554,-40.8 152,-40.8"/>
</g>
<g id="clust7" class="cluster">
<title>cluster_WalletModule_exports</title>
<polygon fill="none" stroke="black" points="146,-170.8 146,-222.8 419,-222.8 419,-170.8 146,-170.8"/>
</g>
<g id="clust6" class="cluster">
<title>cluster_WalletModule_imports</title>
<polygon fill="none" stroke="black" points="16,-40.8 16,-92.8 144,-92.8 144,-40.8 16,-40.8"/>
</g>
<!-- NewComponent -->
<g id="node1" class="node">
<title>NewComponent</title>
<polygon fill="#ffffb3" stroke="black" points="545.76,-84.8 438.24,-84.8 438.24,-48.8 545.76,-48.8 545.76,-84.8"/>
<text text-anchor="middle" x="492" y="-62.6" font-family="Times,serif" font-size="14.00">NewComponent</text>
</g>
<!-- WalletModule -->
<g id="node4" class="node">
<title>WalletModule</title>
<polygon fill="#8dd3c7" stroke="black" points="334.37,-149.8 331.37,-153.8 310.37,-153.8 307.37,-149.8 237.63,-149.8 237.63,-113.8 334.37,-113.8 334.37,-149.8"/>
<text text-anchor="middle" x="286" y="-127.6" font-family="Times,serif" font-size="14.00">WalletModule</text>
</g>
<!-- NewComponent&#45;&gt;WalletModule -->
<g id="edge1" class="edge">
<title>NewComponent&#45;&gt;WalletModule</title>
<path fill="none" stroke="black" d="M492,-84.91C492,-104.14 492,-131.8 492,-131.8 492,-131.8 344.56,-131.8 344.56,-131.8"/>
<polygon fill="black" stroke="black" points="344.56,-128.3 334.56,-131.8 344.56,-135.3 344.56,-128.3"/>
</g>
<!-- RestoreComponent -->
<g id="node2" class="node">
<title>RestoreComponent</title>
<polygon fill="#ffffb3" stroke="black" points="420.09,-84.8 295.91,-84.8 295.91,-48.8 420.09,-48.8 420.09,-84.8"/>
<text text-anchor="middle" x="358" y="-62.6" font-family="Times,serif" font-size="14.00">RestoreComponent</text>
</g>
<!-- RestoreComponent&#45;&gt;WalletModule -->
<g id="edge2" class="edge">
<title>RestoreComponent&#45;&gt;WalletModule</title>
<path fill="none" stroke="black" d="M315.19,-84.91C315.19,-84.91 315.19,-103.79 315.19,-103.79"/>
<polygon fill="black" stroke="black" points="311.69,-103.79 315.19,-113.79 318.69,-103.79 311.69,-103.79"/>
</g>
<!-- WalletComponent -->
<g id="node3" class="node">
<title>WalletComponent</title>
<polygon fill="#ffffb3" stroke="black" points="278.15,-84.8 159.85,-84.8 159.85,-48.8 278.15,-48.8 278.15,-84.8"/>
<text text-anchor="middle" x="219" y="-62.6" font-family="Times,serif" font-size="14.00">WalletComponent</text>
</g>
<!-- WalletComponent&#45;&gt;WalletModule -->
<g id="edge3" class="edge">
<title>WalletComponent&#45;&gt;WalletModule</title>
<path fill="none" stroke="black" d="M257.95,-84.91C257.95,-84.91 257.95,-103.79 257.95,-103.79"/>
<polygon fill="black" stroke="black" points="254.45,-103.79 257.95,-113.79 261.45,-103.79 254.45,-103.79"/>
</g>
<!-- NewComponent  -->
<g id="node6" class="node">
<title>NewComponent </title>
<polygon fill="#fb8072" stroke="black" points="410.76,-214.8 299.24,-214.8 299.24,-178.8 410.76,-178.8 410.76,-214.8"/>
<text text-anchor="middle" x="355" y="-192.6" font-family="Times,serif" font-size="14.00">NewComponent </text>
</g>
<!-- WalletModule&#45;&gt;NewComponent  -->
<g id="edge5" class="edge">
<title>WalletModule&#45;&gt;NewComponent </title>
<path fill="none" stroke="black" stroke-dasharray="5,2" d="M316.9,-149.91C316.9,-149.91 316.9,-168.79 316.9,-168.79"/>
<polygon fill="black" stroke="black" points="313.4,-168.79 316.9,-178.79 320.4,-168.79 313.4,-168.79"/>
</g>
<!-- RestoreComponent  -->
<g id="node7" class="node">
<title>RestoreComponent </title>
<polygon fill="#fb8072" stroke="black" points="281.59,-214.8 154.41,-214.8 154.41,-178.8 281.59,-178.8 281.59,-214.8"/>
<text text-anchor="middle" x="218" y="-192.6" font-family="Times,serif" font-size="14.00">RestoreComponent </text>
</g>
<!-- WalletModule&#45;&gt;RestoreComponent  -->
<g id="edge6" class="edge">
<title>WalletModule&#45;&gt;RestoreComponent </title>
<path fill="none" stroke="black" stroke-dasharray="5,2" d="M259.68,-149.91C259.68,-149.91 259.68,-168.79 259.68,-168.79"/>
<polygon fill="black" stroke="black" points="256.18,-168.79 259.68,-178.79 263.18,-168.79 256.18,-168.79"/>
</g>
<!-- TranslateModule -->
<g id="node5" class="node">
<title>TranslateModule</title>
<polygon fill="#8dd3c7" stroke="black" points="135.63,-84.8 132.63,-88.8 111.63,-88.8 108.63,-84.8 24.37,-84.8 24.37,-48.8 135.63,-48.8 135.63,-84.8"/>
<text text-anchor="middle" x="80" y="-62.6" font-family="Times,serif" font-size="14.00">TranslateModule</text>
</g>
<!-- TranslateModule&#45;&gt;WalletModule -->
<g id="edge4" class="edge">
<title>TranslateModule&#45;&gt;WalletModule</title>
<path fill="none" stroke="black" d="M80,-84.91C80,-104.14 80,-131.8 80,-131.8 80,-131.8 227.44,-131.8 227.44,-131.8"/>
<polygon fill="black" stroke="black" points="227.44,-135.3 237.44,-131.8 227.44,-128.3 227.44,-135.3"/>
</g>
</g>
</svg>
