<?xml version="1.0" encoding="UTF-8" standalone="no"?>
<!DOCTYPE svg PUBLIC "-//W3C//DTD SVG 1.1//EN"
 "http://www.w3.org/Graphics/SVG/1.1/DTD/svg11.dtd">
<!-- Generated by graphviz version 2.47.3 (20210619.1520)
 -->
<!-- Title: dependencies Pages: 1 -->
<svg width="446pt" height="174pt"
 viewBox="0.00 0.00 446.00 173.80" xmlns="http://www.w3.org/2000/svg" xmlns:xlink="http://www.w3.org/1999/xlink">
<g id="graph0" class="graph" transform="scale(1 1) rotate(0) translate(4 169.8)">
<title>dependencies</title>
<polygon fill="white" stroke="transparent" points="-4,4 -4,-169.8 442,-169.8 442,4 -4,4"/>
<text text-anchor="middle" x="219" y="-8.2" font-family="sans-serif" font-size="14.00">dependencies</text>
<g id="clust1" class="cluster">
<title>cluster_BlockchainModule</title>
<polygon fill="none" stroke="black" stroke-dasharray="1,5" points="8,-32.8 8,-157.8 430,-157.8 430,-32.8 8,-32.8"/>
</g>
<g id="clust2" class="cluster">
<title>cluster_BlockchainModule_declarations</title>
<polygon fill="none" stroke="black" points="260,-40.8 260,-92.8 422,-92.8 422,-40.8 260,-40.8"/>
</g>
<g id="clust4" class="cluster">
<title>cluster_BlockchainModule_imports</title>
<polygon fill="none" stroke="black" points="16,-40.8 16,-92.8 252,-92.8 252,-40.8 16,-40.8"/>
</g>
<!-- BlockchainComponent -->
<g id="node1" class="node">
<title>BlockchainComponent</title>
<polygon fill="#ffffb3" stroke="black" points="413.59,-84.8 268.41,-84.8 268.41,-48.8 413.59,-48.8 413.59,-84.8"/>
<text text-anchor="middle" x="341" y="-62.6" font-family="Times,serif" font-size="14.00">BlockchainComponent</text>
</g>
<!-- BlockchainModule -->
<g id="node2" class="node">
<title>BlockchainModule</title>
<polygon fill="#8dd3c7" stroke="black" points="260.81,-149.8 257.81,-153.8 236.81,-153.8 233.81,-149.8 137.19,-149.8 137.19,-113.8 260.81,-113.8 260.81,-149.8"/>
<text text-anchor="middle" x="199" y="-127.6" font-family="Times,serif" font-size="14.00">BlockchainModule</text>
</g>
<!-- BlockchainComponent&#45;&gt;BlockchainModule -->
<g id="edge1" class="edge">
<title>BlockchainComponent&#45;&gt;BlockchainModule</title>
<path fill="none" stroke="black" d="M268.31,-66.8C258.92,-66.8 252.49,-66.8 252.49,-66.8 252.49,-66.8 252.49,-103.69 252.49,-103.69"/>
<polygon fill="black" stroke="black" points="248.99,-103.69 252.49,-113.69 255.99,-103.69 248.99,-103.69"/>
</g>
<!-- ChartModule -->
<g id="node3" class="node">
<title>ChartModule</title>
<polygon fill="#8dd3c7" stroke="black" points="244.15,-84.8 241.15,-88.8 220.15,-88.8 217.15,-84.8 153.85,-84.8 153.85,-48.8 244.15,-48.8 244.15,-84.8"/>
<text text-anchor="middle" x="199" y="-62.6" font-family="Times,serif" font-size="14.00">ChartModule</text>
</g>
<!-- ChartModule&#45;&gt;BlockchainModule -->
<g id="edge2" class="edge">
<title>ChartModule&#45;&gt;BlockchainModule</title>
<path fill="none" stroke="black" d="M199,-84.91C199,-84.91 199,-103.79 199,-103.79"/>
<polygon fill="black" stroke="black" points="195.5,-103.79 199,-113.79 202.5,-103.79 195.5,-103.79"/>
</g>
<!-- TranslateModule -->
<g id="node4" class="node">
<title>TranslateModule</title>
<polygon fill="#8dd3c7" stroke="black" points="135.63,-84.8 132.63,-88.8 111.63,-88.8 108.63,-84.8 24.37,-84.8 24.37,-48.8 135.63,-48.8 135.63,-84.8"/>
<text text-anchor="middle" x="80" y="-62.6" font-family="Times,serif" font-size="14.00">TranslateModule</text>
</g>
<!-- TranslateModule&#45;&gt;BlockchainModule -->
<g id="edge3" class="edge">
<title>TranslateModule&#45;&gt;BlockchainModule</title>
<path fill="none" stroke="black" d="M135.84,-66.8C141.67,-66.8 145.51,-66.8 145.51,-66.8 145.51,-66.8 145.51,-103.69 145.51,-103.69"/>
<polygon fill="black" stroke="black" points="142.01,-103.69 145.51,-113.69 149.01,-103.69 142.01,-103.69"/>
</g>
</g>
</svg>
