<?xml version="1.0" encoding="UTF-8" standalone="no"?>
<!DOCTYPE svg PUBLIC "-//W3C//DTD SVG 1.1//EN"
 "http://www.w3.org/Graphics/SVG/1.1/DTD/svg11.dtd">
<!-- Generated by graphviz version 2.47.3 (20210619.1520)
 -->
<!-- Title: dependencies Pages: 1 -->
<svg width="446pt" height="174pt"
 viewBox="0.00 0.00 446.00 173.80" xmlns="http://www.w3.org/2000/svg" xmlns:xlink="http://www.w3.org/1999/xlink">
<g id="graph0" class="graph" transform="scale(1 1) rotate(0) translate(4 169.8)">
<title>dependencies</title>
<polygon fill="white" stroke="transparent" points="-4,4 -4,-169.8 442,-169.8 442,4 -4,4"/>
<text text-anchor="middle" x="219" y="-8.2" font-family="sans-serif" font-size="14.00">dependencies</text>
<g id="clust1" class="cluster">
<title>cluster_BlockchainModule</title>
<polygon fill="none" stroke="black" stroke-dasharray="1,5" points="8,-32.8 8,-157.8 430,-157.8 430,-32.8 8,-32.8"/>
</g>
<g id="clust4" class="cluster">
<title>cluster_BlockchainModule_imports</title>
<polygon fill="none" stroke="black" points="186,-40.8 186,-92.8 422,-92.8 422,-40.8 186,-40.8"/>
</g>
<g id="clust2" class="cluster">
<title>cluster_BlockchainModule_declarations</title>
<polygon fill="none" stroke="black" points="16,-40.8 16,-92.8 178,-92.8 178,-40.8 16,-40.8"/>
</g>
<!-- BlockchainComponent -->
<g id="node1" class="node">
<title>BlockchainComponent</title>
<polygon fill="#ffffb3" stroke="black" points="169.59,-84.8 24.41,-84.8 24.41,-48.8 169.59,-48.8 169.59,-84.8"/>
<text text-anchor="middle" x="97" y="-62.6" font-family="Times,serif" font-size="14.00">BlockchainComponent</text>
</g>
<!-- BlockchainModule -->
<g id="node2" class="node">
<title>BlockchainModule</title>
<polygon fill="#8dd3c7" stroke="black" points="311.81,-149.8 308.81,-153.8 287.81,-153.8 284.81,-149.8 188.19,-149.8 188.19,-113.8 311.81,-113.8 311.81,-149.8"/>
<text text-anchor="middle" x="250" y="-127.6" font-family="Times,serif" font-size="14.00">BlockchainModule</text>
</g>
<!-- BlockchainComponent&#45;&gt;BlockchainModule -->
<g id="edge1" class="edge">
<title>BlockchainComponent&#45;&gt;BlockchainModule</title>
<path fill="none" stroke="black" d="M97,-84.91C97,-104.14 97,-131.8 97,-131.8 97,-131.8 178.21,-131.8 178.21,-131.8"/>
<polygon fill="black" stroke="black" points="178.21,-135.3 188.21,-131.8 178.21,-128.3 178.21,-135.3"/>
</g>
<!-- ChartModule -->
<g id="node3" class="node">
<title>ChartModule</title>
<polygon fill="#8dd3c7" stroke="black" points="414.15,-84.8 411.15,-88.8 390.15,-88.8 387.15,-84.8 323.85,-84.8 323.85,-48.8 414.15,-48.8 414.15,-84.8"/>
<text text-anchor="middle" x="369" y="-62.6" font-family="Times,serif" font-size="14.00">ChartModule</text>
</g>
<!-- ChartModule&#45;&gt;BlockchainModule -->
<g id="edge2" class="edge">
<title>ChartModule&#45;&gt;BlockchainModule</title>
<path fill="none" stroke="black" d="M369,-84.91C369,-104.14 369,-131.8 369,-131.8 369,-131.8 321.94,-131.8 321.94,-131.8"/>
<polygon fill="black" stroke="black" points="321.94,-128.3 311.94,-131.8 321.94,-135.3 321.94,-128.3"/>
</g>
<!-- TranslateModule -->
<g id="node4" class="node">
<title>TranslateModule</title>
<polygon fill="#8dd3c7" stroke="black" points="305.63,-84.8 302.63,-88.8 281.63,-88.8 278.63,-84.8 194.37,-84.8 194.37,-48.8 305.63,-48.8 305.63,-84.8"/>
<text text-anchor="middle" x="250" y="-62.6" font-family="Times,serif" font-size="14.00">TranslateModule</text>
</g>
<!-- TranslateModule&#45;&gt;BlockchainModule -->
<g id="edge3" class="edge">
<title>TranslateModule&#45;&gt;BlockchainModule</title>
<path fill="none" stroke="black" d="M250,-84.91C250,-84.91 250,-103.79 250,-103.79"/>
<polygon fill="black" stroke="black" points="246.5,-103.79 250,-113.79 253.5,-103.79 246.5,-103.79"/>
</g>
</g>
</svg>
