<?xml version="1.0" encoding="UTF-8" standalone="no"?>
<!DOCTYPE svg PUBLIC "-//W3C//DTD SVG 1.1//EN"
 "http://www.w3.org/Graphics/SVG/1.1/DTD/svg11.dtd">
<!-- Generated by graphviz version 2.47.3 (20210619.1520)
 -->
<!-- Title: dependencies Pages: 1 -->
<svg width="574pt" height="239pt"
 viewBox="0.00 0.00 574.00 238.80" xmlns="http://www.w3.org/2000/svg" xmlns:xlink="http://www.w3.org/1999/xlink">
<g id="graph0" class="graph" transform="scale(1 1) rotate(0) translate(4 234.8)">
<title>dependencies</title>
<polygon fill="white" stroke="transparent" points="-4,4 -4,-234.8 570,-234.8 570,4 -4,4"/>
<text text-anchor="middle" x="283" y="-8.2" font-family="sans-serif" font-size="14.00">dependencies</text>
<g id="clust1" class="cluster">
<title>cluster_BlockchainModule</title>
<polygon fill="none" stroke="black" stroke-dasharray="1,5" points="8,-32.8 8,-222.8 558,-222.8 558,-32.8 8,-32.8"/>
</g>
<g id="clust5" class="cluster">
<title>cluster_BlockchainModule_imports</title>
<polygon fill="none" stroke="black" points="314,-105.8 314,-157.8 550,-157.8 550,-105.8 314,-105.8"/>
</g>
<g id="clust3" class="cluster">
<title>cluster_BlockchainModule_BlockchainComponent_providers</title>
<polygon fill="none" stroke="black" points="144,-40.8 144,-157.8 306,-157.8 306,-40.8 144,-40.8"/>
</g>
<g id="clust2" class="cluster">
<title>cluster_BlockchainModule_declarations</title>
<polygon fill="none" stroke="black" points="16,-105.8 16,-157.8 136,-157.8 136,-105.8 16,-105.8"/>
</g>
<!-- BlockchainComponent -->
<g id="node1" class="node">
<title>BlockchainComponent</title>
<polygon fill="#ffffb3" stroke="black" points="297.59,-149.8 152.41,-149.8 152.41,-113.8 297.59,-113.8 297.59,-149.8"/>
<text text-anchor="middle" x="225" y="-127.6" font-family="Times,serif" font-size="14.00">BlockchainComponent</text>
</g>
<!-- BlockchainModule -->
<g id="node3" class="node">
<title>BlockchainModule</title>
<polygon fill="#8dd3c7" stroke="black" points="362.81,-214.8 359.81,-218.8 338.81,-218.8 335.81,-214.8 239.19,-214.8 239.19,-178.8 362.81,-178.8 362.81,-214.8"/>
<text text-anchor="middle" x="301" y="-192.6" font-family="Times,serif" font-size="14.00">BlockchainModule</text>
</g>
<!-- BlockchainComponent&#45;&gt;BlockchainModule -->
<g id="edge1" class="edge">
<title>BlockchainComponent&#45;&gt;BlockchainModule</title>
<path fill="none" stroke="black" d="M268.45,-149.91C268.45,-149.91 268.45,-168.79 268.45,-168.79"/>
<polygon fill="black" stroke="black" points="264.95,-168.79 268.45,-178.79 271.95,-168.79 264.95,-168.79"/>
</g>
<!-- TxnComponent -->
<g id="node2" class="node">
<title>TxnComponent</title>
<polygon fill="#ffffb3" stroke="black" points="127.89,-149.8 24.11,-149.8 24.11,-113.8 127.89,-113.8 127.89,-149.8"/>
<text text-anchor="middle" x="76" y="-127.6" font-family="Times,serif" font-size="14.00">TxnComponent</text>
</g>
<!-- TxnComponent&#45;&gt;BlockchainModule -->
<g id="edge3" class="edge">
<title>TxnComponent&#45;&gt;BlockchainModule</title>
<path fill="none" stroke="black" d="M76,-149.91C76,-169.14 76,-196.8 76,-196.8 76,-196.8 229.22,-196.8 229.22,-196.8"/>
<polygon fill="black" stroke="black" points="229.22,-200.3 239.22,-196.8 229.22,-193.3 229.22,-200.3"/>
</g>
<!-- ChartService -->
<g id="node4" class="node">
<title>ChartService</title>
<ellipse fill="#fdb462" stroke="black" cx="225" cy="-66.8" rx="61.39" ry="18"/>
<text text-anchor="middle" x="225" y="-62.6" font-family="Times,serif" font-size="14.00">ChartService</text>
</g>
<!-- ChartService&#45;&gt;BlockchainComponent -->
<g id="edge2" class="edge">
<title>ChartService&#45;&gt;BlockchainComponent</title>
<path fill="none" stroke="black" d="M225,-84.91C225,-84.91 225,-103.79 225,-103.79"/>
<polygon fill="black" stroke="black" points="221.5,-103.79 225,-113.79 228.5,-103.79 221.5,-103.79"/>
</g>
<!-- ChartModule -->
<g id="node5" class="node">
<title>ChartModule</title>
<polygon fill="#8dd3c7" stroke="black" points="542.15,-149.8 539.15,-153.8 518.15,-153.8 515.15,-149.8 451.85,-149.8 451.85,-113.8 542.15,-113.8 542.15,-149.8"/>
<text text-anchor="middle" x="497" y="-127.6" font-family="Times,serif" font-size="14.00">ChartModule</text>
</g>
<!-- ChartModule&#45;&gt;BlockchainModule -->
<g id="edge4" class="edge">
<title>ChartModule&#45;&gt;BlockchainModule</title>
<path fill="none" stroke="black" d="M497,-149.91C497,-169.14 497,-196.8 497,-196.8 497,-196.8 372.75,-196.8 372.75,-196.8"/>
<polygon fill="black" stroke="black" points="372.75,-193.3 362.75,-196.8 372.75,-200.3 372.75,-193.3"/>
</g>
<!-- TranslateModule -->
<g id="node6" class="node">
<title>TranslateModule</title>
<polygon fill="#8dd3c7" stroke="black" points="433.63,-149.8 430.63,-153.8 409.63,-153.8 406.63,-149.8 322.37,-149.8 322.37,-113.8 433.63,-113.8 433.63,-149.8"/>
<text text-anchor="middle" x="378" y="-127.6" font-family="Times,serif" font-size="14.00">TranslateModule</text>
</g>
<!-- TranslateModule&#45;&gt;BlockchainModule -->
<g id="edge5" class="edge">
<title>TranslateModule&#45;&gt;BlockchainModule</title>
<path fill="none" stroke="black" d="M342.42,-149.91C342.42,-149.91 342.42,-168.79 342.42,-168.79"/>
<polygon fill="black" stroke="black" points="338.92,-168.79 342.42,-178.79 345.92,-168.79 338.92,-168.79"/>
</g>
</g>
</svg>
