<?xml version="1.0" encoding="UTF-8" standalone="no"?>
<!DOCTYPE svg PUBLIC "-//W3C//DTD SVG 1.1//EN"
 "http://www.w3.org/Graphics/SVG/1.1/DTD/svg11.dtd">
<!-- Generated by graphviz version 2.47.3 (20210619.1520)
 -->
<!-- Title: dependencies Pages: 1 -->
<svg width="4305pt" height="405pt"
 viewBox="0.00 0.00 4305.00 404.80" xmlns="http://www.w3.org/2000/svg" xmlns:xlink="http://www.w3.org/1999/xlink">
<g id="graph0" class="graph" transform="scale(1 1) rotate(0) translate(4 400.8)">
<title>dependencies</title>
<polygon fill="white" stroke="transparent" points="-4,4 -4,-400.8 4301,-400.8 4301,4 -4,4"/>
<text text-anchor="middle" x="2148.5" y="-8.2" font-family="sans-serif" font-size="14.00">dependencies</text>
<g id="clust1" class="cluster">
<title>cluster_AppModule</title>
<polygon fill="none" stroke="black" stroke-dasharray="1,5" points="1074,-176.8 1074,-388.8 1810,-388.8 1810,-176.8 1074,-176.8"/>
</g>
<g id="clust2" class="cluster">
<title>cluster_AppModule_declarations</title>
<polygon fill="none" stroke="black" points="1680,-184.8 1680,-236.8 1802,-236.8 1802,-184.8 1680,-184.8"/>
</g>
<g id="clust4" class="cluster">
<title>cluster_AppModule_imports</title>
<polygon fill="none" stroke="black" points="1082,-184.8 1082,-236.8 1672,-236.8 1672,-184.8 1082,-184.8"/>
</g>
<g id="clust6" class="cluster">
<title>cluster_AppModule_bootstrap</title>
<polygon fill="none" stroke="black" points="1367,-328.8 1367,-380.8 1491,-380.8 1491,-328.8 1367,-328.8"/>
</g>
<g id="clust8" class="cluster">
<title>cluster_AppRoutingModule</title>
<polygon fill="none" stroke="black" stroke-dasharray="1,5" points="1252,-100.8 1252,-168.8 2226,-168.8 2226,-100.8 1252,-100.8"/>
</g>
<g id="clust10" class="cluster">
<title>cluster_AppRoutingModule_imports</title>
<polygon fill="none" stroke="black" points="1260,-108.8 1260,-160.8 2218,-160.8 2218,-108.8 1260,-108.8"/>
</g>
<g id="clust14" class="cluster">
<title>cluster_AuthModule</title>
<polygon fill="none" stroke="black" stroke-dasharray="1,5" points="2234,-100.8 2234,-168.8 2380,-168.8 2380,-100.8 2234,-100.8"/>
</g>
<g id="clust15" class="cluster">
<title>cluster_AuthModule_declarations</title>
<polygon fill="none" stroke="black" points="2242,-108.8 2242,-160.8 2372,-160.8 2372,-108.8 2242,-108.8"/>
</g>
<g id="clust21" class="cluster">
<title>cluster_BlockchainModule</title>
<polygon fill="none" stroke="black" stroke-dasharray="1,5" points="2388,-32.8 2388,-236.8 2680,-236.8 2680,-32.8 2388,-32.8"/>
</g>
<g id="clust22" class="cluster">
<title>cluster_BlockchainModule_declarations</title>
<polygon fill="none" stroke="black" points="2396,-108.8 2396,-160.8 2558,-160.8 2558,-108.8 2396,-108.8"/>
</g>
<g id="clust23" class="cluster">
<title>cluster_BlockchainModule_BlockchainComponent_providers</title>
<polygon fill="none" stroke="black" points="2534,-40.8 2534,-92.8 2672,-92.8 2672,-40.8 2534,-40.8"/>
</g>
<g id="clust24" class="cluster">
<title>cluster_BlockchainModule_imports</title>
<polygon fill="none" stroke="black" points="2566,-108.8 2566,-160.8 2672,-160.8 2672,-108.8 2566,-108.8"/>
</g>
<g id="clust34" class="cluster">
<title>cluster_ChartModule</title>
<polygon fill="none" stroke="black" stroke-dasharray="1,5" points="2688,-100.8 2688,-168.8 2946,-168.8 2946,-100.8 2688,-100.8"/>
</g>
<g id="clust35" class="cluster">
<title>cluster_ChartModule_declarations</title>
<polygon fill="none" stroke="black" points="2822,-108.8 2822,-160.8 2938,-160.8 2938,-108.8 2822,-108.8"/>
</g>
<g id="clust38" class="cluster">
<title>cluster_ChartModule_exports</title>
<polygon fill="none" stroke="black" points="2696,-108.8 2696,-160.8 2814,-160.8 2814,-108.8 2696,-108.8"/>
</g>
<g id="clust41" class="cluster">
<title>cluster_ConsoleModule</title>
<polygon fill="none" stroke="black" stroke-dasharray="1,5" points="752,-252.8 752,-320.8 1066,-320.8 1066,-252.8 752,-252.8"/>
</g>
<g id="clust42" class="cluster">
<title>cluster_ConsoleModule_declarations</title>
<polygon fill="none" stroke="black" points="914,-260.8 914,-312.8 1058,-312.8 1058,-260.8 914,-260.8"/>
</g>
<g id="clust45" class="cluster">
<title>cluster_ConsoleModule_exports</title>
<polygon fill="none" stroke="black" points="760,-260.8 760,-312.8 906,-312.8 906,-260.8 760,-260.8"/>
</g>
<g id="clust54" class="cluster">
<title>cluster_LogsModule</title>
<polygon fill="none" stroke="black" stroke-dasharray="1,5" points="616,-32.8 616,-244.8 760,-244.8 760,-32.8 616,-32.8"/>
</g>
<g id="clust55" class="cluster">
<title>cluster_LogsModule_declarations</title>
<polygon fill="none" stroke="black" points="624,-40.8 624,-92.8 750,-92.8 750,-40.8 624,-40.8"/>
</g>
<g id="clust58" class="cluster">
<title>cluster_LogsModule_exports</title>
<polygon fill="none" stroke="black" points="624,-184.8 624,-236.8 752,-236.8 752,-184.8 624,-184.8"/>
</g>
<g id="clust61" class="cluster">
<title>cluster_PipesModule</title>
<polygon fill="none" stroke="black" stroke-dasharray="1,5" points="2954,-32.8 2954,-244.8 3849,-244.8 3849,-32.8 2954,-32.8"/>
</g>
<g id="clust62" class="cluster">
<title>cluster_PipesModule_declarations</title>
<polygon fill="none" stroke="black" points="2974,-40.8 2974,-92.8 3829,-92.8 3829,-40.8 2974,-40.8"/>
</g>
<g id="clust71" class="cluster">
<title>cluster_PipesModule_exports</title>
<polygon fill="none" stroke="black" points="2962,-184.8 2962,-236.8 3841,-236.8 3841,-184.8 2962,-184.8"/>
</g>
<g id="clust74" class="cluster">
<title>cluster_PostModule</title>
<polygon fill="none" stroke="black" stroke-dasharray="1,5" points="3857,-32.8 3857,-160.8 3995,-160.8 3995,-32.8 3857,-32.8"/>
</g>
<g id="clust75" class="cluster">
<title>cluster_PostModule_declarations</title>
<polygon fill="none" stroke="black" points="3865,-40.8 3865,-92.8 3987,-92.8 3987,-40.8 3865,-40.8"/>
</g>
<g id="clust87" class="cluster">
<title>cluster_RootModule</title>
<polygon fill="none" stroke="black" stroke-dasharray="1,5" points="182,-176.8 182,-312.8 442,-312.8 442,-176.8 182,-176.8"/>
</g>
<g id="clust88" class="cluster">
<title>cluster_RootModule_declarations</title>
<polygon fill="none" stroke="black" points="310,-184.8 310,-236.8 434,-236.8 434,-184.8 310,-184.8"/>
</g>
<g id="clust90" class="cluster">
<title>cluster_RootModule_imports</title>
<polygon fill="none" stroke="black" points="190,-184.8 190,-236.8 302,-236.8 302,-184.8 190,-184.8"/>
</g>
<g id="clust100" class="cluster">
<title>cluster_SettingsModule</title>
<polygon fill="none" stroke="black" stroke-dasharray="1,5" points="450,-100.8 450,-236.8 608,-236.8 608,-100.8 450,-100.8"/>
</g>
<g id="clust101" class="cluster">
<title>cluster_SettingsModule_declarations</title>
<polygon fill="none" stroke="black" points="458,-108.8 458,-160.8 600,-160.8 600,-108.8 458,-108.8"/>
</g>
<g id="clust113" class="cluster">
<title>cluster_StatusModule</title>
<polygon fill="none" stroke="black" stroke-dasharray="1,5" points="768,-100.8 768,-168.8 1244,-168.8 1244,-100.8 768,-100.8"/>
</g>
<g id="clust114" class="cluster">
<title>cluster_StatusModule_declarations</title>
<polygon fill="none" stroke="black" points="920,-108.8 920,-160.8 1236,-160.8 1236,-108.8 920,-108.8"/>
</g>
<g id="clust118" class="cluster">
<title>cluster_StatusModule_exports</title>
<polygon fill="none" stroke="black" points="776,-108.8 776,-160.8 912,-160.8 912,-108.8 776,-108.8"/>
</g>
<g id="clust121" class="cluster">
<title>cluster_UserModule</title>
<polygon fill="none" stroke="black" stroke-dasharray="1,5" points="4003,-32.8 4003,-160.8 4143,-160.8 4143,-32.8 4003,-32.8"/>
</g>
<g id="clust122" class="cluster">
<title>cluster_UserModule_declarations</title>
<polygon fill="none" stroke="black" points="4011,-40.8 4011,-92.8 4135,-92.8 4135,-40.8 4011,-40.8"/>
</g>
<g id="clust134" class="cluster">
<title>cluster_VpnModule</title>
<polygon fill="none" stroke="black" stroke-dasharray="1,5" points="4151,-32.8 4151,-160.8 4289,-160.8 4289,-32.8 4151,-32.8"/>
</g>
<g id="clust135" class="cluster">
<title>cluster_VpnModule_declarations</title>
<polygon fill="none" stroke="black" points="4159,-40.8 4159,-92.8 4281,-92.8 4281,-40.8 4159,-40.8"/>
</g>
<g id="clust147" class="cluster">
<title>cluster_WalletModule</title>
<polygon fill="none" stroke="black" stroke-dasharray="1,5" points="8,-100.8 8,-168.8 442,-168.8 442,-100.8 8,-100.8"/>
</g>
<g id="clust148" class="cluster">
<title>cluster_WalletModule_declarations</title>
<polygon fill="none" stroke="black" points="16,-108.8 16,-160.8 434,-160.8 434,-108.8 16,-108.8"/>
</g>
<!-- AppComponent -->
<g id="node1" class="node">
<title>AppComponent</title>
<polygon fill="#ffffb3" stroke="black" points="1793.94,-228.8 1688.06,-228.8 1688.06,-192.8 1793.94,-192.8 1793.94,-228.8"/>
<text text-anchor="middle" x="1741" y="-206.6" font-family="Times,serif" font-size="14.00">AppComponent</text>
</g>
<!-- AppModule -->
<g id="node2" class="node">
<title>AppModule</title>
<polygon fill="#8dd3c7" stroke="black" points="1470.66,-304.8 1467.66,-308.8 1446.66,-308.8 1443.66,-304.8 1387.34,-304.8 1387.34,-268.8 1470.66,-268.8 1470.66,-304.8"/>
<text text-anchor="middle" x="1429" y="-282.6" font-family="Times,serif" font-size="14.00">AppModule</text>
</g>
<!-- AppComponent&#45;&gt;AppModule -->
<g id="edge1" class="edge">
<title>AppComponent&#45;&gt;AppModule</title>
<path fill="none" stroke="black" d="M1741,-229C1741,-253.16 1741,-292.8 1741,-292.8 1741,-292.8 1480.75,-292.8 1480.75,-292.8"/>
<polygon fill="black" stroke="black" points="1480.75,-289.3 1470.75,-292.8 1480.75,-296.3 1480.75,-289.3"/>
</g>
<!-- AppComponent  -->
<g id="node8" class="node">
<title>AppComponent </title>
<polygon fill="#80b1d3" stroke="black" points="1483.44,-372.8 1374.56,-372.8 1374.56,-336.8 1483.44,-336.8 1483.44,-372.8"/>
<text text-anchor="middle" x="1429" y="-350.6" font-family="Times,serif" font-size="14.00">AppComponent </text>
</g>
<!-- AppModule&#45;&gt;AppComponent  -->
<g id="edge7" class="edge">
<title>AppModule&#45;&gt;AppComponent </title>
<path fill="none" stroke="black" stroke-dasharray="1,5" d="M1429,-305.02C1429,-305.02 1429,-326.53 1429,-326.53"/>
<polygon fill="black" stroke="black" points="1425.5,-326.53 1429,-336.53 1432.5,-326.53 1425.5,-326.53"/>
</g>
<!-- AppRoutingModule -->
<g id="node3" class="node">
<title>AppRoutingModule</title>
<polygon fill="#8dd3c7" stroke="black" points="1558.27,-228.8 1555.27,-232.8 1534.27,-232.8 1531.27,-228.8 1429.73,-228.8 1429.73,-192.8 1558.27,-192.8 1558.27,-228.8"/>
<text text-anchor="middle" x="1494" y="-206.6" font-family="Times,serif" font-size="14.00">AppRoutingModule</text>
</g>
<!-- AppRoutingModule&#45;&gt;AppModule -->
<g id="edge2" class="edge">
<title>AppRoutingModule&#45;&gt;AppModule</title>
<path fill="none" stroke="black" d="M1450.22,-228.81C1450.22,-228.81 1450.22,-258.65 1450.22,-258.65"/>
<polygon fill="black" stroke="black" points="1446.72,-258.65 1450.22,-268.65 1453.72,-258.65 1446.72,-258.65"/>
</g>
<!-- AuthModule -->
<g id="node4" class="node">
<title>AuthModule</title>
<polygon fill="#8dd3c7" stroke="black" points="1663.55,-228.8 1660.55,-232.8 1639.55,-232.8 1636.55,-228.8 1576.45,-228.8 1576.45,-192.8 1663.55,-192.8 1663.55,-228.8"/>
<text text-anchor="middle" x="1620" y="-206.6" font-family="Times,serif" font-size="14.00">AuthModule</text>
</g>
<!-- AuthModule&#45;&gt;AppModule -->
<g id="edge3" class="edge">
<title>AuthModule&#45;&gt;AppModule</title>
<path fill="none" stroke="black" d="M1620,-228.83C1620,-249.57 1620,-280.8 1620,-280.8 1620,-280.8 1480.92,-280.8 1480.92,-280.8"/>
<polygon fill="black" stroke="black" points="1480.92,-277.3 1470.92,-280.8 1480.92,-284.3 1480.92,-277.3"/>
</g>
<!-- ConsoleModule -->
<g id="node5" class="node">
<title>ConsoleModule</title>
<polygon fill="#8dd3c7" stroke="black" points="1195.94,-228.8 1192.94,-232.8 1171.94,-232.8 1168.94,-228.8 1090.06,-228.8 1090.06,-192.8 1195.94,-192.8 1195.94,-228.8"/>
<text text-anchor="middle" x="1143" y="-206.6" font-family="Times,serif" font-size="14.00">ConsoleModule</text>
</g>
<!-- ConsoleModule&#45;&gt;AppModule -->
<g id="edge4" class="edge">
<title>ConsoleModule&#45;&gt;AppModule</title>
<path fill="none" stroke="black" d="M1160.57,-228.81C1160.57,-251.29 1160.57,-286.8 1160.57,-286.8 1160.57,-286.8 1377.06,-286.8 1377.06,-286.8"/>
<polygon fill="black" stroke="black" points="1377.06,-290.3 1387.06,-286.8 1377.06,-283.3 1377.06,-290.3"/>
</g>
<!-- ConsoleComponent  -->
<g id="node23" class="node">
<title>ConsoleComponent </title>
<polygon fill="#fb8072" stroke="black" points="898.22,-304.8 767.78,-304.8 767.78,-268.8 898.22,-268.8 898.22,-304.8"/>
<text text-anchor="middle" x="833" y="-282.6" font-family="Times,serif" font-size="14.00">ConsoleComponent </text>
</g>
<!-- ConsoleModule&#45;&gt;ConsoleComponent  -->
<g id="edge23" class="edge">
<title>ConsoleModule&#45;&gt;ConsoleComponent </title>
<path fill="none" stroke="black" stroke-dasharray="5,2" d="M1090.18,-216.8C1008.38,-216.8 860.4,-216.8 860.4,-216.8 860.4,-216.8 860.4,-258.77 860.4,-258.77"/>
<polygon fill="black" stroke="black" points="856.9,-258.77 860.4,-268.77 863.9,-258.77 856.9,-258.77"/>
</g>
<!-- RootModule -->
<g id="node45" class="node">
<title>RootModule</title>
<polygon fill="#8dd3c7" stroke="black" points="415.28,-304.8 412.28,-308.8 391.28,-308.8 388.28,-304.8 328.72,-304.8 328.72,-268.8 415.28,-268.8 415.28,-304.8"/>
<text text-anchor="middle" x="372" y="-282.6" font-family="Times,serif" font-size="14.00">RootModule</text>
</g>
<!-- ConsoleModule&#45;&gt;RootModule -->
<g id="edge42" class="edge">
<title>ConsoleModule&#45;&gt;RootModule</title>
<path fill="none" stroke="black" d="M1090,-204.8C984.02,-204.8 756.03,-204.8 756.03,-204.8 756.03,-204.8 756.03,-286.8 756.03,-286.8 756.03,-286.8 425.31,-286.8 425.31,-286.8"/>
<polygon fill="black" stroke="black" points="425.31,-283.3 415.31,-286.8 425.31,-290.3 425.31,-283.3"/>
</g>
<!-- DataModule -->
<g id="node6" class="node">
<title>DataModule</title>
<polygon fill="#8dd3c7" stroke="black" points="1299.98,-228.8 1296.98,-232.8 1275.98,-232.8 1272.98,-228.8 1214.02,-228.8 1214.02,-192.8 1299.98,-192.8 1299.98,-228.8"/>
<text text-anchor="middle" x="1257" y="-206.6" font-family="Times,serif" font-size="14.00">DataModule</text>
</g>
<!-- DataModule&#45;&gt;AppModule -->
<g id="edge5" class="edge">
<title>DataModule&#45;&gt;AppModule</title>
<path fill="none" stroke="black" d="M1257,-229.11C1257,-248.95 1257,-277.8 1257,-277.8 1257,-277.8 1376.92,-277.8 1376.92,-277.8"/>
<polygon fill="black" stroke="black" points="1376.92,-281.3 1386.92,-277.8 1376.92,-274.3 1376.92,-281.3"/>
</g>
<!-- StatusModule -->
<g id="node7" class="node">
<title>StatusModule</title>
<polygon fill="#8dd3c7" stroke="black" points="1411.77,-228.8 1408.77,-232.8 1387.77,-232.8 1384.77,-228.8 1318.23,-228.8 1318.23,-192.8 1411.77,-192.8 1411.77,-228.8"/>
<text text-anchor="middle" x="1365" y="-206.6" font-family="Times,serif" font-size="14.00">StatusModule</text>
</g>
<!-- StatusModule&#45;&gt;AppModule -->
<g id="edge6" class="edge">
<title>StatusModule&#45;&gt;AppModule</title>
<path fill="none" stroke="black" d="M1399.53,-228.81C1399.53,-228.81 1399.53,-258.65 1399.53,-258.65"/>
<polygon fill="black" stroke="black" points="1396.03,-258.65 1399.53,-268.65 1403.03,-258.65 1396.03,-258.65"/>
</g>
<!-- StatusComponent  -->
<g id="node51" class="node">
<title>StatusComponent </title>
<polygon fill="#fb8072" stroke="black" points="903.56,-152.8 784.44,-152.8 784.44,-116.8 903.56,-116.8 903.56,-152.8"/>
<text text-anchor="middle" x="844" y="-130.6" font-family="Times,serif" font-size="14.00">StatusComponent </text>
</g>
<!-- StatusModule&#45;&gt;StatusComponent  -->
<g id="edge48" class="edge">
<title>StatusModule&#45;&gt;StatusComponent </title>
<path fill="none" stroke="black" stroke-dasharray="5,2" d="M1341.08,-192.63C1341.08,-190.35 1341.08,-188.8 1341.08,-188.8 1341.08,-188.8 822.43,-188.8 822.43,-188.8 822.43,-188.8 822.43,-163.08 822.43,-163.08"/>
<polygon fill="black" stroke="black" points="825.93,-163.08 822.43,-153.08 818.93,-163.08 825.93,-163.08"/>
</g>
<!-- BlockchainRoutingModule -->
<g id="node9" class="node">
<title>BlockchainRoutingModule</title>
<polygon fill="#8dd3c7" stroke="black" points="2210.43,-152.8 2207.43,-156.8 2186.43,-156.8 2183.43,-152.8 2041.57,-152.8 2041.57,-116.8 2210.43,-116.8 2210.43,-152.8"/>
<text text-anchor="middle" x="2126" y="-130.6" font-family="Times,serif" font-size="14.00">BlockchainRoutingModule</text>
</g>
<!-- BlockchainRoutingModule&#45;&gt;AppRoutingModule -->
<g id="edge8" class="edge">
<title>BlockchainRoutingModule&#45;&gt;AppRoutingModule</title>
<path fill="none" stroke="black" d="M2126,-152.94C2126,-159.26 2126,-164.8 2126,-164.8 2126,-164.8 1532.63,-164.8 1532.63,-164.8 1532.63,-164.8 1532.63,-182.62 1532.63,-182.62"/>
<polygon fill="black" stroke="black" points="1529.13,-182.62 1532.63,-192.62 1536.13,-182.62 1529.13,-182.62"/>
</g>
<!-- PostRoutingModule -->
<g id="node10" class="node">
<title>PostRoutingModule</title>
<polygon fill="#8dd3c7" stroke="black" points="2023.29,-152.8 2020.29,-156.8 1999.29,-156.8 1996.29,-152.8 1894.71,-152.8 1894.71,-116.8 2023.29,-116.8 2023.29,-152.8"/>
<text text-anchor="middle" x="1959" y="-130.6" font-family="Times,serif" font-size="14.00">PostRoutingModule</text>
</g>
<!-- PostRoutingModule&#45;&gt;AppRoutingModule -->
<g id="edge9" class="edge">
<title>PostRoutingModule&#45;&gt;AppRoutingModule</title>
<path fill="none" stroke="black" d="M1959,-152.86C1959,-157.29 1959,-160.8 1959,-160.8 1959,-160.8 1506.88,-160.8 1506.88,-160.8 1506.88,-160.8 1506.88,-182.75 1506.88,-182.75"/>
<polygon fill="black" stroke="black" points="1503.38,-182.75 1506.88,-192.75 1510.38,-182.75 1503.38,-182.75"/>
</g>
<!-- RootRoutingModule -->
<g id="node11" class="node">
<title>RootRoutingModule</title>
<polygon fill="#8dd3c7" stroke="black" points="1876.89,-152.8 1873.89,-156.8 1852.89,-156.8 1849.89,-152.8 1745.11,-152.8 1745.11,-116.8 1876.89,-116.8 1876.89,-152.8"/>
<text text-anchor="middle" x="1811" y="-130.6" font-family="Times,serif" font-size="14.00">RootRoutingModule</text>
</g>
<!-- RootRoutingModule&#45;&gt;AppRoutingModule -->
<g id="edge10" class="edge">
<title>RootRoutingModule&#45;&gt;AppRoutingModule</title>
<path fill="none" stroke="black" d="M1769.39,-152.97C1769.39,-155.25 1769.39,-156.8 1769.39,-156.8 1769.39,-156.8 1481.12,-156.8 1481.12,-156.8 1481.12,-156.8 1481.12,-182.52 1481.12,-182.52"/>
<polygon fill="black" stroke="black" points="1477.62,-182.52 1481.12,-192.52 1484.62,-182.52 1477.62,-182.52"/>
</g>
<!-- SettingsRoutingModule -->
<g id="node12" class="node">
<title>SettingsRoutingModule</title>
<polygon fill="#8dd3c7" stroke="black" points="1726.78,-152.8 1723.78,-156.8 1702.78,-156.8 1699.78,-152.8 1577.22,-152.8 1577.22,-116.8 1726.78,-116.8 1726.78,-152.8"/>
<text text-anchor="middle" x="1652" y="-130.6" font-family="Times,serif" font-size="14.00">SettingsRoutingModule</text>
</g>
<!-- SettingsRoutingModule&#45;&gt;AppRoutingModule -->
<g id="edge11" class="edge">
<title>SettingsRoutingModule&#45;&gt;AppRoutingModule</title>
<path fill="none" stroke="black" d="M1577.21,-134.8C1571.49,-134.8 1567.89,-134.8 1567.89,-134.8 1567.89,-134.8 1567.89,-210.8 1567.89,-210.8 1567.89,-210.8 1566.95,-210.8 1566.95,-210.8"/>
<polygon fill="black" stroke="black" points="1568.53,-207.3 1558.53,-210.8 1568.53,-214.3 1568.53,-207.3"/>
</g>
<!-- UserRoutingModule -->
<g id="node13" class="node">
<title>UserRoutingModule</title>
<polygon fill="#8dd3c7" stroke="black" points="1559.59,-152.8 1556.59,-156.8 1535.59,-156.8 1532.59,-152.8 1428.41,-152.8 1428.41,-116.8 1559.59,-116.8 1559.59,-152.8"/>
<text text-anchor="middle" x="1494" y="-130.6" font-family="Times,serif" font-size="14.00">UserRoutingModule</text>
</g>
<!-- UserRoutingModule&#45;&gt;AppRoutingModule -->
<g id="edge12" class="edge">
<title>UserRoutingModule&#45;&gt;AppRoutingModule</title>
<path fill="none" stroke="black" d="M1455.37,-152.81C1455.37,-152.81 1455.37,-182.65 1455.37,-182.65"/>
<polygon fill="black" stroke="black" points="1451.87,-182.65 1455.37,-192.65 1458.87,-182.65 1451.87,-182.65"/>
</g>
<!-- WalletRoutingModule -->
<g id="node14" class="node">
<title>WalletRoutingModule</title>
<polygon fill="#8dd3c7" stroke="black" points="1409.98,-152.8 1406.98,-156.8 1385.98,-156.8 1382.98,-152.8 1268.02,-152.8 1268.02,-116.8 1409.98,-116.8 1409.98,-152.8"/>
<text text-anchor="middle" x="1339" y="-130.6" font-family="Times,serif" font-size="14.00">WalletRoutingModule</text>
</g>
<!-- WalletRoutingModule&#45;&gt;AppRoutingModule -->
<g id="edge13" class="edge">
<title>WalletRoutingModule&#45;&gt;AppRoutingModule</title>
<path fill="none" stroke="black" d="M1410.22,-134.8C1416.29,-134.8 1420.17,-134.8 1420.17,-134.8 1420.17,-134.8 1420.17,-210.8 1420.17,-210.8 1420.17,-210.8 1421.1,-210.8 1421.1,-210.8"/>
<polygon fill="black" stroke="black" points="1419.52,-214.3 1429.52,-210.8 1419.52,-207.3 1419.52,-214.3"/>
</g>
<!-- LoginComponent -->
<g id="node15" class="node">
<title>LoginComponent</title>
<polygon fill="#ffffb3" stroke="black" points="2364.28,-152.8 2249.72,-152.8 2249.72,-116.8 2364.28,-116.8 2364.28,-152.8"/>
<text text-anchor="middle" x="2307" y="-130.6" font-family="Times,serif" font-size="14.00">LoginComponent</text>
</g>
<!-- LoginComponent&#45;&gt;AuthModule -->
<g id="edge14" class="edge">
<title>LoginComponent&#45;&gt;AuthModule</title>
<path fill="none" stroke="black" d="M2307,-152.99C2307,-161.08 2307,-168.8 2307,-168.8 2307,-168.8 1620.44,-168.8 1620.44,-168.8 1620.44,-168.8 1620.44,-182.74 1620.44,-182.74"/>
<polygon fill="black" stroke="black" points="1616.94,-182.74 1620.44,-192.74 1623.94,-182.74 1616.94,-182.74"/>
</g>
<!-- BlockchainComponent -->
<g id="node16" class="node">
<title>BlockchainComponent</title>
<polygon fill="#ffffb3" stroke="black" points="2549.59,-152.8 2404.41,-152.8 2404.41,-116.8 2549.59,-116.8 2549.59,-152.8"/>
<text text-anchor="middle" x="2477" y="-130.6" font-family="Times,serif" font-size="14.00">BlockchainComponent</text>
</g>
<!-- BlockchainModule -->
<g id="node17" class="node">
<title>BlockchainModule</title>
<polygon fill="#8dd3c7" stroke="black" points="2604.81,-228.8 2601.81,-232.8 2580.81,-232.8 2577.81,-228.8 2481.19,-228.8 2481.19,-192.8 2604.81,-192.8 2604.81,-228.8"/>
<text text-anchor="middle" x="2543" y="-206.6" font-family="Times,serif" font-size="14.00">BlockchainModule</text>
</g>
<!-- BlockchainComponent&#45;&gt;BlockchainModule -->
<g id="edge15" class="edge">
<title>BlockchainComponent&#45;&gt;BlockchainModule</title>
<path fill="none" stroke="black" d="M2515.45,-152.81C2515.45,-152.81 2515.45,-182.65 2515.45,-182.65"/>
<polygon fill="black" stroke="black" points="2511.95,-182.65 2515.45,-192.65 2518.95,-182.65 2511.95,-182.65"/>
</g>
<!-- ChartService -->
<g id="node18" class="node">
<title>ChartService</title>
<ellipse fill="#fdb462" stroke="black" cx="2603" cy="-66.8" rx="61.39" ry="18"/>
<text text-anchor="middle" x="2603" y="-62.6" font-family="Times,serif" font-size="14.00">ChartService</text>
</g>
<!-- ChartService&#45;&gt;BlockchainComponent -->
<g id="edge16" class="edge">
<title>ChartService&#45;&gt;BlockchainComponent</title>
<path fill="none" stroke="black" d="M2545.55,-73.32C2545.55,-73.32 2545.55,-106.75 2545.55,-106.75"/>
<polygon fill="black" stroke="black" points="2542.05,-106.75 2545.55,-116.75 2549.05,-106.75 2542.05,-106.75"/>
</g>
<!-- ChartModule -->
<g id="node19" class="node">
<title>ChartModule</title>
<polygon fill="#8dd3c7" stroke="black" points="2664.15,-152.8 2661.15,-156.8 2640.15,-156.8 2637.15,-152.8 2573.85,-152.8 2573.85,-116.8 2664.15,-116.8 2664.15,-152.8"/>
<text text-anchor="middle" x="2619" y="-130.6" font-family="Times,serif" font-size="14.00">ChartModule</text>
</g>
<!-- ChartService&#45;&gt;ChartModule -->
<g id="edge21" class="edge">
<title>ChartService&#45;&gt;ChartModule</title>
<path fill="none" stroke="black" d="M2619,-84.31C2619,-84.31 2619,-106.64 2619,-106.64"/>
<polygon fill="black" stroke="black" points="2615.5,-106.64 2619,-116.64 2622.5,-106.64 2615.5,-106.64"/>
</g>
<!-- ChartDirective -->
<g id="node20" class="node">
<title>ChartDirective</title>
<polygon fill="#ffffb3" stroke="black" points="2929.69,-152.8 2830.31,-152.8 2830.31,-116.8 2929.69,-116.8 2929.69,-152.8"/>
<text text-anchor="middle" x="2880" y="-130.6" font-family="Times,serif" font-size="14.00">ChartDirective</text>
</g>
<!-- ChartService&#45;&gt;ChartDirective -->
<g id="edge19" class="edge">
<title>ChartService&#45;&gt;ChartDirective</title>
<path fill="none" stroke="black" d="M2664.48,-66.8C2746.08,-66.8 2880,-66.8 2880,-66.8 2880,-66.8 2880,-106.58 2880,-106.58"/>
<polygon fill="black" stroke="black" points="2876.5,-106.58 2880,-116.58 2883.5,-106.58 2876.5,-106.58"/>
</g>
<!-- ChartModule&#45;&gt;BlockchainModule -->
<g id="edge17" class="edge">
<title>ChartModule&#45;&gt;BlockchainModule</title>
<path fill="none" stroke="black" d="M2589.16,-152.81C2589.16,-152.81 2589.16,-182.65 2589.16,-182.65"/>
<polygon fill="black" stroke="black" points="2585.66,-182.65 2589.16,-192.65 2592.66,-182.65 2585.66,-182.65"/>
</g>
<!-- ChartDirective  -->
<g id="node21" class="node">
<title>ChartDirective </title>
<polygon fill="#fb8072" stroke="black" points="2806.19,-152.8 2703.81,-152.8 2703.81,-116.8 2806.19,-116.8 2806.19,-152.8"/>
<text text-anchor="middle" x="2755" y="-130.6" font-family="Times,serif" font-size="14.00">ChartDirective </text>
</g>
<!-- ChartModule&#45;&gt;ChartDirective  -->
<g id="edge20" class="edge">
<title>ChartModule&#45;&gt;ChartDirective </title>
<path fill="none" stroke="black" stroke-dasharray="5,2" d="M2664.29,-134.8C2664.29,-134.8 2693.81,-134.8 2693.81,-134.8"/>
<polygon fill="black" stroke="black" points="2693.81,-138.3 2703.81,-134.8 2693.81,-131.3 2693.81,-138.3"/>
</g>
<!-- ChartDirective&#45;&gt;ChartModule -->
<g id="edge18" class="edge">
<title>ChartDirective&#45;&gt;ChartModule</title>
<path fill="none" stroke="black" d="M2880,-152.86C2880,-164.24 2880,-176.8 2880,-176.8 2880,-176.8 2634.49,-176.8 2634.49,-176.8 2634.49,-176.8 2634.49,-162.86 2634.49,-162.86"/>
<polygon fill="black" stroke="black" points="2637.99,-162.86 2634.49,-152.86 2630.99,-162.86 2637.99,-162.86"/>
</g>
<!-- ConsoleComponent -->
<g id="node22" class="node">
<title>ConsoleComponent</title>
<polygon fill="#ffffb3" stroke="black" points="1049.72,-304.8 922.28,-304.8 922.28,-268.8 1049.72,-268.8 1049.72,-304.8"/>
<text text-anchor="middle" x="986" y="-282.6" font-family="Times,serif" font-size="14.00">ConsoleComponent</text>
</g>
<!-- ConsoleComponent&#45;&gt;ConsoleModule -->
<g id="edge22" class="edge">
<title>ConsoleComponent&#45;&gt;ConsoleModule</title>
<path fill="none" stroke="black" d="M1050,-295.8C1086.65,-295.8 1125.43,-295.8 1125.43,-295.8 1125.43,-295.8 1125.43,-238.83 1125.43,-238.83"/>
<polygon fill="black" stroke="black" points="1128.93,-238.83 1125.43,-228.83 1121.93,-238.83 1128.93,-238.83"/>
</g>
<!-- LogsComponent -->
<g id="node24" class="node">
<title>LogsComponent</title>
<polygon fill="#ffffb3" stroke="black" points="741.83,-84.8 632.17,-84.8 632.17,-48.8 741.83,-48.8 741.83,-84.8"/>
<text text-anchor="middle" x="687" y="-62.6" font-family="Times,serif" font-size="14.00">LogsComponent</text>
</g>
<!-- LogsModule -->
<g id="node25" class="node">
<title>LogsModule</title>
<polygon fill="#8dd3c7" stroke="black" points="730.55,-152.8 727.55,-156.8 706.55,-156.8 703.55,-152.8 643.45,-152.8 643.45,-116.8 730.55,-116.8 730.55,-152.8"/>
<text text-anchor="middle" x="687" y="-130.6" font-family="Times,serif" font-size="14.00">LogsModule</text>
</g>
<!-- LogsComponent&#45;&gt;LogsModule -->
<g id="edge24" class="edge">
<title>LogsComponent&#45;&gt;LogsModule</title>
<path fill="none" stroke="black" d="M687,-85.02C687,-85.02 687,-106.53 687,-106.53"/>
<polygon fill="black" stroke="black" points="683.5,-106.53 687,-116.53 690.5,-106.53 683.5,-106.53"/>
</g>
<!-- LogsComponent  -->
<g id="node26" class="node">
<title>LogsComponent </title>
<polygon fill="#fb8072" stroke="black" points="744.33,-228.8 631.67,-228.8 631.67,-192.8 744.33,-192.8 744.33,-228.8"/>
<text text-anchor="middle" x="688" y="-206.6" font-family="Times,serif" font-size="14.00">LogsComponent </text>
</g>
<!-- LogsModule&#45;&gt;LogsComponent  -->
<g id="edge25" class="edge">
<title>LogsModule&#45;&gt;LogsComponent </title>
<path fill="none" stroke="black" stroke-dasharray="5,2" d="M687,-152.81C687,-152.81 687,-182.65 687,-182.65"/>
<polygon fill="black" stroke="black" points="683.5,-182.65 687,-192.65 690.5,-182.65 683.5,-182.65"/>
</g>
<!-- SettingsModule -->
<g id="node48" class="node">
<title>SettingsModule</title>
<polygon fill="#8dd3c7" stroke="black" points="590.16,-228.8 587.16,-232.8 566.16,-232.8 563.16,-228.8 485.84,-228.8 485.84,-192.8 590.16,-192.8 590.16,-228.8"/>
<text text-anchor="middle" x="538" y="-206.6" font-family="Times,serif" font-size="14.00">SettingsModule</text>
</g>
<!-- LogsModule&#45;&gt;SettingsModule -->
<g id="edge45" class="edge">
<title>LogsModule&#45;&gt;SettingsModule</title>
<path fill="none" stroke="black" d="M643.32,-134.8C626.8,-134.8 611.9,-134.8 611.9,-134.8 611.9,-134.8 611.9,-210.8 611.9,-210.8 611.9,-210.8 600.53,-210.8 600.53,-210.8"/>
<polygon fill="black" stroke="black" points="600.53,-207.3 590.53,-210.8 600.53,-214.3 600.53,-207.3"/>
</g>
<!-- EffortPipe -->
<g id="node27" class="node">
<title>EffortPipe</title>
<polygon fill="#ffffb3" stroke="black" points="3821.31,-84.8 3746.69,-84.8 3746.69,-48.8 3821.31,-48.8 3821.31,-84.8"/>
<text text-anchor="middle" x="3784" y="-62.6" font-family="Times,serif" font-size="14.00">EffortPipe</text>
</g>
<!-- PipesModule -->
<g id="node34" class="node">
<title>PipesModule</title>
<polygon fill="#8dd3c7" stroke="black" points="3481.88,-152.8 3478.88,-156.8 3457.88,-156.8 3454.88,-152.8 3392.12,-152.8 3392.12,-116.8 3481.88,-116.8 3481.88,-152.8"/>
<text text-anchor="middle" x="3437" y="-130.6" font-family="Times,serif" font-size="14.00">PipesModule</text>
</g>
<!-- EffortPipe&#45;&gt;PipesModule -->
<g id="edge26" class="edge">
<title>EffortPipe&#45;&gt;PipesModule</title>
<path fill="none" stroke="black" d="M3750.97,-84.83C3750.97,-104.38 3750.97,-132.8 3750.97,-132.8 3750.97,-132.8 3491.98,-132.8 3491.98,-132.8"/>
<polygon fill="black" stroke="black" points="3491.98,-129.3 3481.98,-132.8 3491.98,-136.3 3491.98,-129.3"/>
</g>
<!-- EscapeHtmlPipe -->
<g id="node28" class="node">
<title>EscapeHtmlPipe</title>
<polygon fill="#ffffb3" stroke="black" points="3728.81,-84.8 3619.19,-84.8 3619.19,-48.8 3728.81,-48.8 3728.81,-84.8"/>
<text text-anchor="middle" x="3674" y="-62.6" font-family="Times,serif" font-size="14.00">EscapeHtmlPipe</text>
</g>
<!-- EscapeHtmlPipe&#45;&gt;PipesModule -->
<g id="edge27" class="edge">
<title>EscapeHtmlPipe&#45;&gt;PipesModule</title>
<path fill="none" stroke="black" d="M3693.97,-85.1C3693.97,-103.07 3693.97,-127.8 3693.97,-127.8 3693.97,-127.8 3492.05,-127.8 3492.05,-127.8"/>
<polygon fill="black" stroke="black" points="3492.05,-124.3 3482.05,-127.8 3492.05,-131.3 3492.05,-124.3"/>
</g>
<!-- HashRatePipe -->
<g id="node29" class="node">
<title>HashRatePipe</title>
<polygon fill="#ffffb3" stroke="black" points="3601.81,-84.8 3506.19,-84.8 3506.19,-48.8 3601.81,-48.8 3601.81,-84.8"/>
<text text-anchor="middle" x="3554" y="-62.6" font-family="Times,serif" font-size="14.00">HashRatePipe</text>
</g>
<!-- HashRatePipe&#45;&gt;PipesModule -->
<g id="edge28" class="edge">
<title>HashRatePipe&#45;&gt;PipesModule</title>
<path fill="none" stroke="black" d="M3570.3,-84.83C3570.3,-101.2 3570.3,-122.8 3570.3,-122.8 3570.3,-122.8 3492.13,-122.8 3492.13,-122.8"/>
<polygon fill="black" stroke="black" points="3492.13,-119.3 3482.13,-122.8 3492.13,-126.3 3492.13,-119.3"/>
</g>
<!-- MarkdownPipe -->
<g id="node30" class="node">
<title>MarkdownPipe</title>
<polygon fill="#ffffb3" stroke="black" points="3488.31,-84.8 3385.69,-84.8 3385.69,-48.8 3488.31,-48.8 3488.31,-84.8"/>
<text text-anchor="middle" x="3437" y="-62.6" font-family="Times,serif" font-size="14.00">MarkdownPipe</text>
</g>
<!-- MarkdownPipe&#45;&gt;PipesModule -->
<g id="edge29" class="edge">
<title>MarkdownPipe&#45;&gt;PipesModule</title>
<path fill="none" stroke="black" d="M3437,-85.02C3437,-85.02 3437,-106.53 3437,-106.53"/>
<polygon fill="black" stroke="black" points="3433.5,-106.53 3437,-116.53 3440.5,-106.53 3433.5,-106.53"/>
</g>
<!-- RemoveTrailingZerosPipe -->
<g id="node31" class="node">
<title>RemoveTrailingZerosPipe</title>
<polygon fill="#ffffb3" stroke="black" points="3368.02,-84.8 3203.98,-84.8 3203.98,-48.8 3368.02,-48.8 3368.02,-84.8"/>
<text text-anchor="middle" x="3286" y="-62.6" font-family="Times,serif" font-size="14.00">RemoveTrailingZerosPipe</text>
</g>
<!-- RemoveTrailingZerosPipe&#45;&gt;PipesModule -->
<g id="edge30" class="edge">
<title>RemoveTrailingZerosPipe&#45;&gt;PipesModule</title>
<path fill="none" stroke="black" d="M3311.92,-84.83C3311.92,-101.2 3311.92,-122.8 3311.92,-122.8 3311.92,-122.8 3381.84,-122.8 3381.84,-122.8"/>
<polygon fill="black" stroke="black" points="3381.84,-126.3 3391.84,-122.8 3381.84,-119.3 3381.84,-126.3"/>
</g>
<!-- ShruggiePipe -->
<g id="node32" class="node">
<title>ShruggiePipe</title>
<polygon fill="#ffffb3" stroke="black" points="3185.94,-84.8 3094.06,-84.8 3094.06,-48.8 3185.94,-48.8 3185.94,-84.8"/>
<text text-anchor="middle" x="3140" y="-62.6" font-family="Times,serif" font-size="14.00">ShruggiePipe</text>
</g>
<!-- ShruggiePipe&#45;&gt;PipesModule -->
<g id="edge31" class="edge">
<title>ShruggiePipe&#45;&gt;PipesModule</title>
<path fill="none" stroke="black" d="M3151.74,-85.1C3151.74,-103.07 3151.74,-127.8 3151.74,-127.8 3151.74,-127.8 3382.11,-127.8 3382.11,-127.8"/>
<polygon fill="black" stroke="black" points="3382.11,-131.3 3392.11,-127.8 3382.11,-124.3 3382.11,-131.3"/>
</g>
<!-- TimeAgoPipe -->
<g id="node33" class="node">
<title>TimeAgoPipe</title>
<polygon fill="#ffffb3" stroke="black" points="3076.04,-84.8 2981.96,-84.8 2981.96,-48.8 3076.04,-48.8 3076.04,-84.8"/>
<text text-anchor="middle" x="3029" y="-62.6" font-family="Times,serif" font-size="14.00">TimeAgoPipe</text>
</g>
<!-- TimeAgoPipe&#45;&gt;PipesModule -->
<g id="edge32" class="edge">
<title>TimeAgoPipe&#45;&gt;PipesModule</title>
<path fill="none" stroke="black" d="M3072.15,-84.83C3072.15,-104.38 3072.15,-132.8 3072.15,-132.8 3072.15,-132.8 3381.9,-132.8 3381.9,-132.8"/>
<polygon fill="black" stroke="black" points="3381.9,-136.3 3391.9,-132.8 3381.9,-129.3 3381.9,-136.3"/>
</g>
<!-- EffortPipe  -->
<g id="node35" class="node">
<title>EffortPipe </title>
<polygon fill="#fb8072" stroke="black" points="3832.81,-228.8 3755.19,-228.8 3755.19,-192.8 3832.81,-192.8 3832.81,-228.8"/>
<text text-anchor="middle" x="3794" y="-206.6" font-family="Times,serif" font-size="14.00">EffortPipe </text>
</g>
<!-- PipesModule&#45;&gt;EffortPipe  -->
<g id="edge33" class="edge">
<title>PipesModule&#45;&gt;EffortPipe </title>
<path fill="none" stroke="black" stroke-dasharray="5,2" d="M3482.18,-137.8C3577.02,-137.8 3788.12,-137.8 3788.12,-137.8 3788.12,-137.8 3788.12,-182.76 3788.12,-182.76"/>
<polygon fill="black" stroke="black" points="3784.63,-182.76 3788.12,-192.76 3791.63,-182.76 3784.63,-182.76"/>
</g>
<!-- EscapeHtmlPipe  -->
<g id="node36" class="node">
<title>EscapeHtmlPipe </title>
<polygon fill="#fb8072" stroke="black" points="3737.31,-228.8 3624.69,-228.8 3624.69,-192.8 3737.31,-192.8 3737.31,-228.8"/>
<text text-anchor="middle" x="3681" y="-206.6" font-family="Times,serif" font-size="14.00">EscapeHtmlPipe </text>
</g>
<!-- PipesModule&#45;&gt;EscapeHtmlPipe  -->
<g id="edge34" class="edge">
<title>PipesModule&#45;&gt;EscapeHtmlPipe </title>
<path fill="none" stroke="black" stroke-dasharray="5,2" d="M3481.98,-142.8C3546.93,-142.8 3659.28,-142.8 3659.28,-142.8 3659.28,-142.8 3659.28,-182.58 3659.28,-182.58"/>
<polygon fill="black" stroke="black" points="3655.78,-182.58 3659.28,-192.58 3662.78,-182.58 3655.78,-182.58"/>
</g>
<!-- HashRatePipe  -->
<g id="node37" class="node">
<title>HashRatePipe </title>
<polygon fill="#fb8072" stroke="black" points="3606.31,-228.8 3507.69,-228.8 3507.69,-192.8 3606.31,-192.8 3606.31,-228.8"/>
<text text-anchor="middle" x="3557" y="-206.6" font-family="Times,serif" font-size="14.00">HashRatePipe </text>
</g>
<!-- PipesModule&#45;&gt;HashRatePipe  -->
<g id="edge35" class="edge">
<title>PipesModule&#45;&gt;HashRatePipe </title>
<path fill="none" stroke="black" stroke-dasharray="5,2" d="M3482.01,-147.8C3509.32,-147.8 3538.95,-147.8 3538.95,-147.8 3538.95,-147.8 3538.95,-182.58 3538.95,-182.58"/>
<polygon fill="black" stroke="black" points="3535.45,-182.58 3538.95,-192.58 3542.45,-182.58 3535.45,-182.58"/>
</g>
<!-- MarkdownPipe  -->
<g id="node38" class="node">
<title>MarkdownPipe </title>
<polygon fill="#fb8072" stroke="black" points="3489.81,-228.8 3384.19,-228.8 3384.19,-192.8 3489.81,-192.8 3489.81,-228.8"/>
<text text-anchor="middle" x="3437" y="-206.6" font-family="Times,serif" font-size="14.00">MarkdownPipe </text>
</g>
<!-- PipesModule&#45;&gt;MarkdownPipe  -->
<g id="edge36" class="edge">
<title>PipesModule&#45;&gt;MarkdownPipe </title>
<path fill="none" stroke="black" stroke-dasharray="5,2" d="M3437,-152.81C3437,-152.81 3437,-182.65 3437,-182.65"/>
<polygon fill="black" stroke="black" points="3433.5,-182.65 3437,-192.65 3440.5,-182.65 3433.5,-182.65"/>
</g>
<!-- RemoveTrailingZerosPipe  -->
<g id="node39" class="node">
<title>RemoveTrailingZerosPipe </title>
<polygon fill="#fb8072" stroke="black" points="3366.02,-228.8 3197.98,-228.8 3197.98,-192.8 3366.02,-192.8 3366.02,-228.8"/>
<text text-anchor="middle" x="3282" y="-206.6" font-family="Times,serif" font-size="14.00">RemoveTrailingZerosPipe </text>
</g>
<!-- PipesModule&#45;&gt;RemoveTrailingZerosPipe  -->
<g id="edge37" class="edge">
<title>PipesModule&#45;&gt;RemoveTrailingZerosPipe </title>
<path fill="none" stroke="black" stroke-dasharray="5,2" d="M3391.79,-147.8C3338.71,-147.8 3257.83,-147.8 3257.83,-147.8 3257.83,-147.8 3257.83,-182.58 3257.83,-182.58"/>
<polygon fill="black" stroke="black" points="3254.33,-182.58 3257.83,-192.58 3261.33,-182.58 3254.33,-182.58"/>
</g>
<!-- ShruggiePipe  -->
<g id="node40" class="node">
<title>ShruggiePipe </title>
<polygon fill="#fb8072" stroke="black" points="3180.44,-228.8 3085.56,-228.8 3085.56,-192.8 3180.44,-192.8 3180.44,-228.8"/>
<text text-anchor="middle" x="3133" y="-206.6" font-family="Times,serif" font-size="14.00">ShruggiePipe </text>
</g>
<!-- PipesModule&#45;&gt;ShruggiePipe  -->
<g id="edge38" class="edge">
<title>PipesModule&#45;&gt;ShruggiePipe </title>
<path fill="none" stroke="black" stroke-dasharray="5,2" d="M3392.01,-142.8C3305.19,-142.8 3123.01,-142.8 3123.01,-142.8 3123.01,-142.8 3123.01,-182.58 3123.01,-182.58"/>
<polygon fill="black" stroke="black" points="3119.51,-182.58 3123.01,-192.58 3126.51,-182.58 3119.51,-182.58"/>
</g>
<!-- TimeAgoPipe  -->
<g id="node41" class="node">
<title>TimeAgoPipe </title>
<polygon fill="#fb8072" stroke="black" points="3068.04,-228.8 2969.96,-228.8 2969.96,-192.8 3068.04,-192.8 3068.04,-228.8"/>
<text text-anchor="middle" x="3019" y="-206.6" font-family="Times,serif" font-size="14.00">TimeAgoPipe </text>
</g>
<!-- PipesModule&#45;&gt;TimeAgoPipe  -->
<g id="edge39" class="edge">
<title>PipesModule&#45;&gt;TimeAgoPipe </title>
<path fill="none" stroke="black" stroke-dasharray="5,2" d="M3392.11,-137.8C3285.3,-137.8 3024.88,-137.8 3024.88,-137.8 3024.88,-137.8 3024.88,-182.76 3024.88,-182.76"/>
<polygon fill="black" stroke="black" points="3021.38,-182.76 3024.88,-192.76 3028.38,-182.76 3021.38,-182.76"/>
</g>
<!-- PostComponent -->
<g id="node42" class="node">
<title>PostComponent</title>
<polygon fill="#ffffb3" stroke="black" points="3978.95,-84.8 3873.05,-84.8 3873.05,-48.8 3978.95,-48.8 3978.95,-84.8"/>
<text text-anchor="middle" x="3926" y="-62.6" font-family="Times,serif" font-size="14.00">PostComponent</text>
</g>
<!-- PostModule -->
<g id="node43" class="node">
<title>PostModule</title>
<polygon fill="#8dd3c7" stroke="black" points="3967.67,-152.8 3964.67,-156.8 3943.67,-156.8 3940.67,-152.8 3884.33,-152.8 3884.33,-116.8 3967.67,-116.8 3967.67,-152.8"/>
<text text-anchor="middle" x="3926" y="-130.6" font-family="Times,serif" font-size="14.00">PostModule</text>
</g>
<!-- PostComponent&#45;&gt;PostModule -->
<g id="edge40" class="edge">
<title>PostComponent&#45;&gt;PostModule</title>
<path fill="none" stroke="black" d="M3926,-85.02C3926,-85.02 3926,-106.53 3926,-106.53"/>
<polygon fill="black" stroke="black" points="3922.5,-106.53 3926,-116.53 3929.5,-106.53 3922.5,-106.53"/>
</g>
<!-- RootComponent -->
<g id="node44" class="node">
<title>RootComponent</title>
<polygon fill="#ffffb3" stroke="black" points="426.06,-228.8 317.94,-228.8 317.94,-192.8 426.06,-192.8 426.06,-228.8"/>
<text text-anchor="middle" x="372" y="-206.6" font-family="Times,serif" font-size="14.00">RootComponent</text>
</g>
<!-- RootComponent&#45;&gt;RootModule -->
<g id="edge41" class="edge">
<title>RootComponent&#45;&gt;RootModule</title>
<path fill="none" stroke="black" d="M372,-228.81C372,-228.81 372,-258.65 372,-258.65"/>
<polygon fill="black" stroke="black" points="368.5,-258.65 372,-268.65 375.5,-258.65 368.5,-258.65"/>
</g>
<!-- WalletModule -->
<g id="node46" class="node">
<title>WalletModule</title>
<polygon fill="#8dd3c7" stroke="black" points="294.37,-228.8 291.37,-232.8 270.37,-232.8 267.37,-228.8 197.63,-228.8 197.63,-192.8 294.37,-192.8 294.37,-228.8"/>
<text text-anchor="middle" x="246" y="-206.6" font-family="Times,serif" font-size="14.00">WalletModule</text>
</g>
<!-- WalletModule&#45;&gt;RootModule -->
<g id="edge43" class="edge">
<title>WalletModule&#45;&gt;RootModule</title>
<path fill="none" stroke="black" d="M246,-228.81C246,-251.29 246,-286.8 246,-286.8 246,-286.8 318.64,-286.8 318.64,-286.8"/>
<polygon fill="black" stroke="black" points="318.64,-290.3 328.64,-286.8 318.64,-283.3 318.64,-290.3"/>
</g>
<!-- SettingsComponent -->
<g id="node47" class="node">
<title>SettingsComponent</title>
<polygon fill="#ffffb3" stroke="black" points="592.45,-152.8 465.55,-152.8 465.55,-116.8 592.45,-116.8 592.45,-152.8"/>
<text text-anchor="middle" x="529" y="-130.6" font-family="Times,serif" font-size="14.00">SettingsComponent</text>
</g>
<!-- SettingsComponent&#45;&gt;WalletModule -->
<g id="edge53" class="edge">
<title>SettingsComponent&#45;&gt;WalletModule</title>
<path fill="none" stroke="black" d="M475.72,-152.91C475.72,-162.7 475.72,-172.8 475.72,-172.8 475.72,-172.8 290.97,-172.8 290.97,-172.8 290.97,-172.8 290.97,-182.69 290.97,-182.69"/>
<polygon fill="black" stroke="black" points="287.47,-182.69 290.97,-192.69 294.47,-182.69 287.47,-182.69"/>
</g>
<!-- SettingsComponent&#45;&gt;SettingsModule -->
<g id="edge44" class="edge">
<title>SettingsComponent&#45;&gt;SettingsModule</title>
<path fill="none" stroke="black" d="M538,-152.81C538,-152.81 538,-182.65 538,-182.65"/>
<polygon fill="black" stroke="black" points="534.5,-182.65 538,-192.65 541.5,-182.65 534.5,-182.65"/>
</g>
<!-- NoDaemonRunningDialog -->
<g id="node49" class="node">
<title>NoDaemonRunningDialog</title>
<polygon fill="#ffffb3" stroke="black" points="1228.36,-152.8 1061.64,-152.8 1061.64,-116.8 1228.36,-116.8 1228.36,-152.8"/>
<text text-anchor="middle" x="1145" y="-130.6" font-family="Times,serif" font-size="14.00">NoDaemonRunningDialog</text>
</g>
<!-- NoDaemonRunningDialog&#45;&gt;StatusModule -->
<g id="edge46" class="edge">
<title>NoDaemonRunningDialog&#45;&gt;StatusModule</title>
<path fill="none" stroke="black" d="M1221.22,-152.98C1221.22,-165.84 1221.22,-180.8 1221.22,-180.8 1221.22,-180.8 1387.02,-180.8 1387.02,-180.8 1387.02,-180.8 1387.02,-182.66 1387.02,-182.66"/>
<polygon fill="black" stroke="black" points="1383.52,-182.66 1387.02,-192.66 1390.52,-182.66 1383.52,-182.66"/>
</g>
<!-- StatusComponent -->
<g id="node50" class="node">
<title>StatusComponent</title>
<polygon fill="#ffffb3" stroke="black" points="1043.56,-152.8 928.44,-152.8 928.44,-116.8 1043.56,-116.8 1043.56,-152.8"/>
<text text-anchor="middle" x="986" y="-130.6" font-family="Times,serif" font-size="14.00">StatusComponent</text>
</g>
<!-- StatusComponent&#45;&gt;StatusModule -->
<g id="edge47" class="edge">
<title>StatusComponent&#45;&gt;StatusModule</title>
<path fill="none" stroke="black" d="M986,-152.85C986,-167.17 986,-184.8 986,-184.8 986,-184.8 1364.05,-184.8 1364.05,-184.8 1364.05,-184.8 1364.05,-185.59 1364.05,-185.59"/>
<polygon fill="black" stroke="black" points="1360.55,-182.74 1364.05,-192.74 1367.55,-182.74 1360.55,-182.74"/>
</g>
<!-- UserComponent -->
<g id="node52" class="node">
<title>UserComponent</title>
<polygon fill="#ffffb3" stroke="black" points="4126.76,-84.8 4019.24,-84.8 4019.24,-48.8 4126.76,-48.8 4126.76,-84.8"/>
<text text-anchor="middle" x="4073" y="-62.6" font-family="Times,serif" font-size="14.00">UserComponent</text>
</g>
<!-- UserModule -->
<g id="node53" class="node">
<title>UserModule</title>
<polygon fill="#8dd3c7" stroke="black" points="4115.98,-152.8 4112.98,-156.8 4091.98,-156.8 4088.98,-152.8 4030.02,-152.8 4030.02,-116.8 4115.98,-116.8 4115.98,-152.8"/>
<text text-anchor="middle" x="4073" y="-130.6" font-family="Times,serif" font-size="14.00">UserModule</text>
</g>
<!-- UserComponent&#45;&gt;UserModule -->
<g id="edge49" class="edge">
<title>UserComponent&#45;&gt;UserModule</title>
<path fill="none" stroke="black" d="M4073,-85.02C4073,-85.02 4073,-106.53 4073,-106.53"/>
<polygon fill="black" stroke="black" points="4069.5,-106.53 4073,-116.53 4076.5,-106.53 4069.5,-106.53"/>
</g>
<!-- VpnComponent -->
<g id="node54" class="node">
<title>VpnComponent</title>
<polygon fill="#ffffb3" stroke="black" points="4272.94,-84.8 4167.06,-84.8 4167.06,-48.8 4272.94,-48.8 4272.94,-84.8"/>
<text text-anchor="middle" x="4220" y="-62.6" font-family="Times,serif" font-size="14.00">VpnComponent</text>
</g>
<!-- VpnModule -->
<g id="node55" class="node">
<title>VpnModule</title>
<polygon fill="#8dd3c7" stroke="black" points="4261.66,-152.8 4258.66,-156.8 4237.66,-156.8 4234.66,-152.8 4178.34,-152.8 4178.34,-116.8 4261.66,-116.8 4261.66,-152.8"/>
<text text-anchor="middle" x="4220" y="-130.6" font-family="Times,serif" font-size="14.00">VpnModule</text>
</g>
<!-- VpnComponent&#45;&gt;VpnModule -->
<g id="edge50" class="edge">
<title>VpnComponent&#45;&gt;VpnModule</title>
<path fill="none" stroke="black" d="M4220,-85.02C4220,-85.02 4220,-106.53 4220,-106.53"/>
<polygon fill="black" stroke="black" points="4216.5,-106.53 4220,-116.53 4223.5,-106.53 4216.5,-106.53"/>
</g>
<!-- BackupComponent -->
<g id="node56" class="node">
<title>BackupComponent</title>
<polygon fill="#ffffb3" stroke="black" points="426.1,-152.8 301.9,-152.8 301.9,-116.8 426.1,-116.8 426.1,-152.8"/>
<text text-anchor="middle" x="364" y="-130.6" font-family="Times,serif" font-size="14.00">BackupComponent</text>
</g>
<!-- BackupComponent&#45;&gt;WalletModule -->
<g id="edge51" class="edge">
<title>BackupComponent&#45;&gt;WalletModule</title>
<path fill="none" stroke="black" d="M301.9,-134.8C293.39,-134.8 287.51,-134.8 287.51,-134.8 287.51,-134.8 287.51,-182.79 287.51,-182.79"/>
<polygon fill="black" stroke="black" points="284.01,-182.79 287.51,-192.79 291.01,-182.79 284.01,-182.79"/>
</g>
<!-- RestoreComponent -->
<g id="node57" class="node">
<title>RestoreComponent</title>
<polygon fill="#ffffb3" stroke="black" points="284.09,-152.8 159.91,-152.8 159.91,-116.8 284.09,-116.8 284.09,-152.8"/>
<text text-anchor="middle" x="222" y="-130.6" font-family="Times,serif" font-size="14.00">RestoreComponent</text>
</g>
<!-- RestoreComponent&#45;&gt;WalletModule -->
<g id="edge52" class="edge">
<title>RestoreComponent&#45;&gt;WalletModule</title>
<path fill="none" stroke="black" d="M240.81,-152.81C240.81,-152.81 240.81,-182.65 240.81,-182.65"/>
<polygon fill="black" stroke="black" points="237.31,-182.65 240.81,-192.65 244.31,-182.65 237.31,-182.65"/>
</g>
<!-- WalletComponent -->
<g id="node58" class="node">
<title>WalletComponent</title>
<polygon fill="#ffffb3" stroke="black" points="142.15,-152.8 23.85,-152.8 23.85,-116.8 142.15,-116.8 142.15,-152.8"/>
<text text-anchor="middle" x="83" y="-130.6" font-family="Times,serif" font-size="14.00">WalletComponent</text>
</g>
<!-- WalletComponent&#45;&gt;WalletModule -->
<g id="edge54" class="edge">
<title>WalletComponent&#45;&gt;WalletModule</title>
<path fill="none" stroke="black" d="M83,-152.81C83,-175.29 83,-210.8 83,-210.8 83,-210.8 187.54,-210.8 187.54,-210.8"/>
<polygon fill="black" stroke="black" points="187.54,-214.3 197.54,-210.8 187.54,-207.3 187.54,-214.3"/>
</g>
</g>
</svg>
