<?xml version="1.0" encoding="UTF-8" standalone="no"?>
<!DOCTYPE svg PUBLIC "-//W3C//DTD SVG 1.1//EN"
 "http://www.w3.org/Graphics/SVG/1.1/DTD/svg11.dtd">
<!-- Generated by graphviz version 2.47.3 (20210619.1520)
 -->
<!-- Title: dependencies Pages: 1 -->
<svg width="1009pt" height="247pt"
 viewBox="0.00 0.00 1009.00 246.80" xmlns="http://www.w3.org/2000/svg" xmlns:xlink="http://www.w3.org/1999/xlink">
<g id="graph0" class="graph" transform="scale(1 1) rotate(0) translate(4 242.8)">
<title>dependencies</title>
<polygon fill="white" stroke="transparent" points="-4,4 -4,-242.8 1005,-242.8 1005,4 -4,4"/>
<text text-anchor="middle" x="500.5" y="-8.2" font-family="sans-serif" font-size="14.00">dependencies</text>
<g id="clust1" class="cluster">
<title>cluster_AppModule</title>
<polygon fill="none" stroke="black" stroke-dasharray="1,5" points="8,-32.8 8,-230.8 993,-230.8 993,-32.8 8,-32.8"/>
</g>
<g id="clust2" class="cluster">
<title>cluster_AppModule_declarations</title>
<polygon fill="none" stroke="black" points="863,-40.8 863,-92.8 985,-92.8 985,-40.8 863,-40.8"/>
</g>
<g id="clust4" class="cluster">
<title>cluster_AppModule_imports</title>
<polygon fill="none" stroke="black" points="16,-40.8 16,-92.8 855,-92.8 855,-40.8 16,-40.8"/>
</g>
<g id="clust6" class="cluster">
<title>cluster_AppModule_bootstrap</title>
<polygon fill="none" stroke="black" points="424,-170.8 424,-222.8 548,-222.8 548,-170.8 424,-170.8"/>
</g>
<!-- AppComponent -->
<g id="node1" class="node">
<title>AppComponent</title>
<polygon fill="#ffffb3" stroke="black" points="976.94,-84.8 871.06,-84.8 871.06,-48.8 976.94,-48.8 976.94,-84.8"/>
<text text-anchor="middle" x="924" y="-62.6" font-family="Times,serif" font-size="14.00">AppComponent</text>
</g>
<!-- AppModule -->
<g id="node2" class="node">
<title>AppModule</title>
<polygon fill="#8dd3c7" stroke="black" points="527.66,-149.8 524.66,-153.8 503.66,-153.8 500.66,-149.8 444.34,-149.8 444.34,-113.8 527.66,-113.8 527.66,-149.8"/>
<text text-anchor="middle" x="486" y="-127.6" font-family="Times,serif" font-size="14.00">AppModule</text>
</g>
<!-- AppComponent&#45;&gt;AppModule -->
<g id="edge1" class="edge">
<title>AppComponent&#45;&gt;AppModule</title>
<path fill="none" stroke="black" d="M924,-85.09C924,-107.01 924,-140.8 924,-140.8 924,-140.8 538,-140.8 538,-140.8"/>
<polygon fill="black" stroke="black" points="538,-137.3 528,-140.8 538,-144.3 538,-137.3"/>
</g>
<!-- AppComponent  -->
<g id="node10" class="node">
<title>AppComponent </title>
<polygon fill="#80b1d3" stroke="black" points="540.44,-214.8 431.56,-214.8 431.56,-178.8 540.44,-178.8 540.44,-214.8"/>
<text text-anchor="middle" x="486" y="-192.6" font-family="Times,serif" font-size="14.00">AppComponent </text>
</g>
<!-- AppModule&#45;&gt;AppComponent  -->
<g id="edge9" class="edge">
<title>AppModule&#45;&gt;AppComponent </title>
<path fill="none" stroke="black" stroke-dasharray="1,5" d="M486,-149.91C486,-149.91 486,-168.79 486,-168.79"/>
<polygon fill="black" stroke="black" points="482.5,-168.79 486,-178.79 489.5,-168.79 482.5,-168.79"/>
</g>
<!-- AppRoutingModule -->
<g id="node3" class="node">
<title>AppRoutingModule</title>
<polygon fill="#8dd3c7" stroke="black" points="847.27,-84.8 844.27,-88.8 823.27,-88.8 820.27,-84.8 718.73,-84.8 718.73,-48.8 847.27,-48.8 847.27,-84.8"/>
<text text-anchor="middle" x="783" y="-62.6" font-family="Times,serif" font-size="14.00">AppRoutingModule</text>
</g>
<!-- AppRoutingModule&#45;&gt;AppModule -->
<g id="edge2" class="edge">
<title>AppRoutingModule&#45;&gt;AppModule</title>
<path fill="none" stroke="black" d="M783,-84.91C783,-104.14 783,-131.8 783,-131.8 783,-131.8 537.92,-131.8 537.92,-131.8"/>
<polygon fill="black" stroke="black" points="537.92,-128.3 527.92,-131.8 537.92,-135.3 537.92,-128.3"/>
</g>
<!-- AuthModule -->
<g id="node4" class="node">
<title>AuthModule</title>
<polygon fill="#8dd3c7" stroke="black" points="700.55,-84.8 697.55,-88.8 676.55,-88.8 673.55,-84.8 613.45,-84.8 613.45,-48.8 700.55,-48.8 700.55,-84.8"/>
<text text-anchor="middle" x="657" y="-62.6" font-family="Times,serif" font-size="14.00">AuthModule</text>
</g>
<!-- AuthModule&#45;&gt;AppModule -->
<g id="edge3" class="edge">
<title>AuthModule&#45;&gt;AppModule</title>
<path fill="none" stroke="black" d="M657,-84.83C657,-101.2 657,-122.8 657,-122.8 657,-122.8 537.83,-122.8 537.83,-122.8"/>
<polygon fill="black" stroke="black" points="537.83,-119.3 527.83,-122.8 537.83,-126.3 537.83,-119.3"/>
</g>
<!-- ConsoleModule -->
<g id="node5" class="node">
<title>ConsoleModule</title>
<polygon fill="#8dd3c7" stroke="black" points="595.94,-84.8 592.94,-88.8 571.94,-88.8 568.94,-84.8 490.06,-84.8 490.06,-48.8 595.94,-48.8 595.94,-84.8"/>
<text text-anchor="middle" x="543" y="-62.6" font-family="Times,serif" font-size="14.00">ConsoleModule</text>
</g>
<!-- ConsoleModule&#45;&gt;AppModule -->
<g id="edge4" class="edge">
<title>ConsoleModule&#45;&gt;AppModule</title>
<path fill="none" stroke="black" d="M509.06,-84.91C509.06,-84.91 509.06,-103.79 509.06,-103.79"/>
<polygon fill="black" stroke="black" points="505.56,-103.79 509.06,-113.79 512.56,-103.79 505.56,-103.79"/>
</g>
<!-- DataModule -->
<g id="node6" class="node">
<title>DataModule</title>
<polygon fill="#8dd3c7" stroke="black" points="471.98,-84.8 468.98,-88.8 447.98,-88.8 444.98,-84.8 386.02,-84.8 386.02,-48.8 471.98,-48.8 471.98,-84.8"/>
<text text-anchor="middle" x="429" y="-62.6" font-family="Times,serif" font-size="14.00">DataModule</text>
</g>
<!-- DataModule&#45;&gt;AppModule -->
<g id="edge5" class="edge">
<title>DataModule&#45;&gt;AppModule</title>
<path fill="none" stroke="black" d="M458.08,-84.91C458.08,-84.91 458.08,-103.79 458.08,-103.79"/>
<polygon fill="black" stroke="black" points="454.58,-103.79 458.08,-113.79 461.58,-103.79 454.58,-103.79"/>
</g>
<!-- PluginsModule -->
<g id="node7" class="node">
<title>PluginsModule</title>
<polygon fill="#8dd3c7" stroke="black" points="367.56,-84.8 364.56,-88.8 343.56,-88.8 340.56,-84.8 266.44,-84.8 266.44,-48.8 367.56,-48.8 367.56,-84.8"/>
<text text-anchor="middle" x="317" y="-62.6" font-family="Times,serif" font-size="14.00">PluginsModule</text>
</g>
<!-- PluginsModule&#45;&gt;AppModule -->
<g id="edge6" class="edge">
<title>PluginsModule&#45;&gt;AppModule</title>
<path fill="none" stroke="black" d="M317,-84.83C317,-101.2 317,-122.8 317,-122.8 317,-122.8 434.22,-122.8 434.22,-122.8"/>
<polygon fill="black" stroke="black" points="434.22,-126.3 444.22,-122.8 434.22,-119.3 434.22,-126.3"/>
</g>
<!-- StatusModule -->
<g id="node8" class="node">
<title>StatusModule</title>
<polygon fill="#8dd3c7" stroke="black" points="247.77,-84.8 244.77,-88.8 223.77,-88.8 220.77,-84.8 154.23,-84.8 154.23,-48.8 247.77,-48.8 247.77,-84.8"/>
<text text-anchor="middle" x="201" y="-62.6" font-family="Times,serif" font-size="14.00">StatusModule</text>
</g>
<!-- StatusModule&#45;&gt;AppModule -->
<g id="edge7" class="edge">
<title>StatusModule&#45;&gt;AppModule</title>
<path fill="none" stroke="black" d="M201,-84.91C201,-104.14 201,-131.8 201,-131.8 201,-131.8 434.25,-131.8 434.25,-131.8"/>
<polygon fill="black" stroke="black" points="434.25,-135.3 444.25,-131.8 434.25,-128.3 434.25,-135.3"/>
</g>
<!-- TranslateModule -->
<g id="node9" class="node">
<title>TranslateModule</title>
<polygon fill="#8dd3c7" stroke="black" points="135.63,-84.8 132.63,-88.8 111.63,-88.8 108.63,-84.8 24.37,-84.8 24.37,-48.8 135.63,-48.8 135.63,-84.8"/>
<text text-anchor="middle" x="80" y="-62.6" font-family="Times,serif" font-size="14.00">TranslateModule</text>
</g>
<!-- TranslateModule&#45;&gt;AppModule -->
<g id="edge8" class="edge">
<title>TranslateModule&#45;&gt;AppModule</title>
<path fill="none" stroke="black" d="M80,-85.09C80,-107.01 80,-140.8 80,-140.8 80,-140.8 434.08,-140.8 434.08,-140.8"/>
<polygon fill="black" stroke="black" points="434.08,-144.3 444.08,-140.8 434.08,-137.3 434.08,-144.3"/>
</g>
</g>
</svg>
