<?xml version="1.0" encoding="UTF-8" standalone="no"?>
<!DOCTYPE svg PUBLIC "-//W3C//DTD SVG 1.1//EN"
 "http://www.w3.org/Graphics/SVG/1.1/DTD/svg11.dtd">
<!-- Generated by graphviz version 2.47.3 (20210619.1520)
 -->
<!-- Title: dependencies Pages: 1 -->
<svg width="374pt" height="174pt"
 viewBox="0.00 0.00 374.00 173.80" xmlns="http://www.w3.org/2000/svg" xmlns:xlink="http://www.w3.org/1999/xlink">
<g id="graph0" class="graph" transform="scale(1 1) rotate(0) translate(4 169.8)">
<title>dependencies</title>
<polygon fill="white" stroke="transparent" points="-4,4 -4,-169.8 370,-169.8 370,4 -4,4"/>
<text text-anchor="middle" x="183" y="-8.2" font-family="sans-serif" font-size="14.00">dependencies</text>
<g id="clust1" class="cluster">
<title>cluster_AppRoutingModule</title>
<polygon fill="none" stroke="black" stroke-dasharray="1,5" points="8,-32.8 8,-157.8 358,-157.8 358,-32.8 8,-32.8"/>
</g>
<g id="clust3" class="cluster">
<title>cluster_AppRoutingModule_imports</title>
<polygon fill="none" stroke="black" points="16,-40.8 16,-92.8 350,-92.8 350,-40.8 16,-40.8"/>
</g>
<!-- BlockchainRoutingModule -->
<g id="node1" class="node">
<title>BlockchainRoutingModule</title>
<polygon fill="#8dd3c7" stroke="black" points="342.43,-84.8 339.43,-88.8 318.43,-88.8 315.43,-84.8 173.57,-84.8 173.57,-48.8 342.43,-48.8 342.43,-84.8"/>
<text text-anchor="middle" x="258" y="-62.6" font-family="Times,serif" font-size="14.00">BlockchainRoutingModule</text>
</g>
<!-- AppRoutingModule -->
<g id="node3" class="node">
<title>AppRoutingModule</title>
<polygon fill="#8dd3c7" stroke="black" points="238.27,-149.8 235.27,-153.8 214.27,-153.8 211.27,-149.8 109.73,-149.8 109.73,-113.8 238.27,-113.8 238.27,-149.8"/>
<text text-anchor="middle" x="174" y="-127.6" font-family="Times,serif" font-size="14.00">AppRoutingModule</text>
</g>
<!-- BlockchainRoutingModule&#45;&gt;AppRoutingModule -->
<g id="edge1" class="edge">
<title>BlockchainRoutingModule&#45;&gt;AppRoutingModule</title>
<path fill="none" stroke="black" d="M206.09,-84.91C206.09,-84.91 206.09,-103.79 206.09,-103.79"/>
<polygon fill="black" stroke="black" points="202.59,-103.79 206.09,-113.79 209.59,-103.79 202.59,-103.79"/>
</g>
<!-- RootRoutingModule -->
<g id="node2" class="node">
<title>RootRoutingModule</title>
<polygon fill="#8dd3c7" stroke="black" points="155.89,-84.8 152.89,-88.8 131.89,-88.8 128.89,-84.8 24.11,-84.8 24.11,-48.8 155.89,-48.8 155.89,-84.8"/>
<text text-anchor="middle" x="90" y="-62.6" font-family="Times,serif" font-size="14.00">RootRoutingModule</text>
</g>
<!-- RootRoutingModule&#45;&gt;AppRoutingModule -->
<g id="edge2" class="edge">
<title>RootRoutingModule&#45;&gt;AppRoutingModule</title>
<path fill="none" stroke="black" d="M132.78,-84.91C132.78,-84.91 132.78,-103.79 132.78,-103.79"/>
<polygon fill="black" stroke="black" points="129.28,-103.79 132.78,-113.79 136.28,-103.79 129.28,-103.79"/>
</g>
</g>
</svg>
