<?xml version="1.0" encoding="UTF-8" standalone="no"?>
<!DOCTYPE svg PUBLIC "-//W3C//DTD SVG 1.1//EN"
 "http://www.w3.org/Graphics/SVG/1.1/DTD/svg11.dtd">
<!-- Generated by graphviz version 2.47.3 (20210619.1520)
 -->
<!-- Title: dependencies Pages: 1 -->
<svg width="1025pt" height="247pt"
 viewBox="0.00 0.00 1025.00 246.80" xmlns="http://www.w3.org/2000/svg" xmlns:xlink="http://www.w3.org/1999/xlink">
<g id="graph0" class="graph" transform="scale(1 1) rotate(0) translate(4 242.8)">
<title>dependencies</title>
<polygon fill="white" stroke="transparent" points="-4,4 -4,-242.8 1021,-242.8 1021,4 -4,4"/>
<text text-anchor="middle" x="508.5" y="-8.2" font-family="sans-serif" font-size="14.00">dependencies</text>
<g id="clust1" class="cluster">
<title>cluster_PipesModule</title>
<polygon fill="none" stroke="black" stroke-dasharray="1,5" points="8,-32.8 8,-230.8 1009,-230.8 1009,-32.8 8,-32.8"/>
</g>
<g id="clust12" class="cluster">
<title>cluster_PipesModule_exports</title>
<polygon fill="none" stroke="black" points="16,-170.8 16,-222.8 1001,-222.8 1001,-170.8 16,-170.8"/>
</g>
<g id="clust2" class="cluster">
<title>cluster_PipesModule_declarations</title>
<polygon fill="none" stroke="black" points="33,-40.8 33,-92.8 990,-92.8 990,-40.8 33,-40.8"/>
</g>
<!-- EffortPipe -->
<g id="node1" class="node">
<title>EffortPipe</title>
<polygon fill="#ffffb3" stroke="black" points="982.31,-84.8 907.69,-84.8 907.69,-48.8 982.31,-48.8 982.31,-84.8"/>
<text text-anchor="middle" x="945" y="-62.6" font-family="Times,serif" font-size="14.00">EffortPipe</text>
</g>
<!-- PipesModule -->
<g id="node9" class="node">
<title>PipesModule</title>
<polygon fill="#8dd3c7" stroke="black" points="497.88,-149.8 494.88,-153.8 473.88,-153.8 470.88,-149.8 408.12,-149.8 408.12,-113.8 497.88,-113.8 497.88,-149.8"/>
<text text-anchor="middle" x="453" y="-127.6" font-family="Times,serif" font-size="14.00">PipesModule</text>
</g>
<!-- EffortPipe&#45;&gt;PipesModule -->
<g id="edge1" class="edge">
<title>EffortPipe&#45;&gt;PipesModule</title>
<path fill="none" stroke="black" d="M911.47,-85.02C911.47,-103.63 911.47,-129.8 911.47,-129.8 911.47,-129.8 508.21,-129.8 508.21,-129.8"/>
<polygon fill="black" stroke="black" points="508.21,-126.3 498.21,-129.8 508.21,-133.3 508.21,-126.3"/>
</g>
<!-- EscapeHtmlPipe -->
<g id="node2" class="node">
<title>EscapeHtmlPipe</title>
<polygon fill="#ffffb3" stroke="black" points="889.81,-84.8 780.19,-84.8 780.19,-48.8 889.81,-48.8 889.81,-84.8"/>
<text text-anchor="middle" x="835" y="-62.6" font-family="Times,serif" font-size="14.00">EscapeHtmlPipe</text>
</g>
<!-- EscapeHtmlPipe&#45;&gt;PipesModule -->
<g id="edge2" class="edge">
<title>EscapeHtmlPipe&#45;&gt;PipesModule</title>
<path fill="none" stroke="black" d="M854.63,-84.82C854.63,-102.17 854.63,-125.8 854.63,-125.8 854.63,-125.8 507.9,-125.8 507.9,-125.8"/>
<polygon fill="black" stroke="black" points="507.9,-122.3 497.9,-125.8 507.9,-129.3 507.9,-122.3"/>
</g>
<!-- HashRatePipe -->
<g id="node3" class="node">
<title>HashRatePipe</title>
<polygon fill="#ffffb3" stroke="black" points="762.81,-84.8 667.19,-84.8 667.19,-48.8 762.81,-48.8 762.81,-84.8"/>
<text text-anchor="middle" x="715" y="-62.6" font-family="Times,serif" font-size="14.00">HashRatePipe</text>
</g>
<!-- HashRatePipe&#45;&gt;PipesModule -->
<g id="edge3" class="edge">
<title>HashRatePipe&#45;&gt;PipesModule</title>
<path fill="none" stroke="black" d="M730.97,-84.81C730.97,-100.85 730.97,-121.8 730.97,-121.8 730.97,-121.8 507.97,-121.8 507.97,-121.8"/>
<polygon fill="black" stroke="black" points="507.97,-118.3 497.97,-121.8 507.97,-125.3 507.97,-118.3"/>
</g>
<!-- MarkdownPipe -->
<g id="node4" class="node">
<title>MarkdownPipe</title>
<polygon fill="#ffffb3" stroke="black" points="649.31,-84.8 546.69,-84.8 546.69,-48.8 649.31,-48.8 649.31,-84.8"/>
<text text-anchor="middle" x="598" y="-62.6" font-family="Times,serif" font-size="14.00">MarkdownPipe</text>
</g>
<!-- MarkdownPipe&#45;&gt;PipesModule -->
<g id="edge4" class="edge">
<title>MarkdownPipe&#45;&gt;PipesModule</title>
<path fill="none" stroke="black" d="M580.95,-84.92C580.95,-99.58 580.95,-117.8 580.95,-117.8 580.95,-117.8 508.11,-117.8 508.11,-117.8"/>
<polygon fill="black" stroke="black" points="508.11,-114.3 498.11,-117.8 508.11,-121.3 508.11,-114.3"/>
</g>
<!-- RemoveTrailingZerosPipe -->
<g id="node5" class="node">
<title>RemoveTrailingZerosPipe</title>
<polygon fill="#ffffb3" stroke="black" points="529.02,-84.8 364.98,-84.8 364.98,-48.8 529.02,-48.8 529.02,-84.8"/>
<text text-anchor="middle" x="447" y="-62.6" font-family="Times,serif" font-size="14.00">RemoveTrailingZerosPipe</text>
</g>
<!-- RemoveTrailingZerosPipe&#45;&gt;PipesModule -->
<g id="edge5" class="edge">
<title>RemoveTrailingZerosPipe&#45;&gt;PipesModule</title>
<path fill="none" stroke="black" d="M453,-84.91C453,-84.91 453,-103.79 453,-103.79"/>
<polygon fill="black" stroke="black" points="449.5,-103.79 453,-113.79 456.5,-103.79 449.5,-103.79"/>
</g>
<!-- ShruggiePipe -->
<g id="node6" class="node">
<title>ShruggiePipe</title>
<polygon fill="#ffffb3" stroke="black" points="346.94,-84.8 255.06,-84.8 255.06,-48.8 346.94,-48.8 346.94,-84.8"/>
<text text-anchor="middle" x="301" y="-62.6" font-family="Times,serif" font-size="14.00">ShruggiePipe</text>
</g>
<!-- ShruggiePipe&#45;&gt;PipesModule -->
<g id="edge6" class="edge">
<title>ShruggiePipe&#45;&gt;PipesModule</title>
<path fill="none" stroke="black" d="M312.07,-85.04C312.07,-100.37 312.07,-119.8 312.07,-119.8 312.07,-119.8 398.02,-119.8 398.02,-119.8"/>
<polygon fill="black" stroke="black" points="398.02,-123.3 408.02,-119.8 398.02,-116.3 398.02,-123.3"/>
</g>
<!-- TimeAgoPipe -->
<g id="node7" class="node">
<title>TimeAgoPipe</title>
<polygon fill="#ffffb3" stroke="black" points="237.04,-84.8 142.96,-84.8 142.96,-48.8 237.04,-48.8 237.04,-84.8"/>
<text text-anchor="middle" x="190" y="-62.6" font-family="Times,serif" font-size="14.00">TimeAgoPipe</text>
</g>
<!-- TimeAgoPipe&#45;&gt;PipesModule -->
<g id="edge7" class="edge">
<title>TimeAgoPipe&#45;&gt;PipesModule</title>
<path fill="none" stroke="black" d="M232.65,-84.83C232.65,-101.86 232.65,-124.8 232.65,-124.8 232.65,-124.8 397.88,-124.8 397.88,-124.8"/>
<polygon fill="black" stroke="black" points="397.88,-128.3 407.88,-124.8 397.88,-121.3 397.88,-128.3"/>
</g>
<!-- ToCoinPipe -->
<g id="node8" class="node">
<title>ToCoinPipe</title>
<polygon fill="#ffffb3" stroke="black" points="124.67,-84.8 41.33,-84.8 41.33,-48.8 124.67,-48.8 124.67,-84.8"/>
<text text-anchor="middle" x="83" y="-62.6" font-family="Times,serif" font-size="14.00">ToCoinPipe</text>
</g>
<!-- ToCoinPipe&#45;&gt;PipesModule -->
<g id="edge8" class="edge">
<title>ToCoinPipe&#45;&gt;PipesModule</title>
<path fill="none" stroke="black" d="M118.21,-85.02C118.21,-103.63 118.21,-129.8 118.21,-129.8 118.21,-129.8 397.85,-129.8 397.85,-129.8"/>
<polygon fill="black" stroke="black" points="397.85,-133.3 407.85,-129.8 397.85,-126.3 397.85,-133.3"/>
</g>
<!-- EffortPipe  -->
<g id="node10" class="node">
<title>EffortPipe </title>
<polygon fill="#fb8072" stroke="black" points="992.81,-214.8 915.19,-214.8 915.19,-178.8 992.81,-178.8 992.81,-214.8"/>
<text text-anchor="middle" x="954" y="-192.6" font-family="Times,serif" font-size="14.00">EffortPipe </text>
</g>
<!-- PipesModule&#45;&gt;EffortPipe  -->
<g id="edge9" class="edge">
<title>PipesModule&#45;&gt;EffortPipe </title>
<path fill="none" stroke="black" stroke-dasharray="5,2" d="M498.3,-133.8C620.65,-133.8 948.62,-133.8 948.62,-133.8 948.62,-133.8 948.62,-168.58 948.62,-168.58"/>
<polygon fill="black" stroke="black" points="945.13,-168.58 948.62,-178.58 952.13,-168.58 945.13,-168.58"/>
</g>
<!-- EscapeHtmlPipe  -->
<g id="node11" class="node">
<title>EscapeHtmlPipe </title>
<polygon fill="#fb8072" stroke="black" points="897.31,-214.8 784.69,-214.8 784.69,-178.8 897.31,-178.8 897.31,-214.8"/>
<text text-anchor="middle" x="841" y="-192.6" font-family="Times,serif" font-size="14.00">EscapeHtmlPipe </text>
</g>
<!-- PipesModule&#45;&gt;EscapeHtmlPipe  -->
<g id="edge10" class="edge">
<title>PipesModule&#45;&gt;EscapeHtmlPipe </title>
<path fill="none" stroke="black" stroke-dasharray="5,2" d="M497.95,-137.8C595.85,-137.8 819.62,-137.8 819.62,-137.8 819.62,-137.8 819.62,-168.78 819.62,-168.78"/>
<polygon fill="black" stroke="black" points="816.12,-168.78 819.62,-178.78 823.12,-168.78 816.12,-168.78"/>
</g>
<!-- HashRatePipe  -->
<g id="node12" class="node">
<title>HashRatePipe </title>
<polygon fill="#fb8072" stroke="black" points="766.31,-214.8 667.69,-214.8 667.69,-178.8 766.31,-178.8 766.31,-214.8"/>
<text text-anchor="middle" x="717" y="-192.6" font-family="Times,serif" font-size="14.00">HashRatePipe </text>
</g>
<!-- PipesModule&#45;&gt;HashRatePipe  -->
<g id="edge11" class="edge">
<title>PipesModule&#45;&gt;HashRatePipe </title>
<path fill="none" stroke="black" stroke-dasharray="5,2" d="M497.89,-141.8C568.92,-141.8 699.28,-141.8 699.28,-141.8 699.28,-141.8 699.28,-168.79 699.28,-168.79"/>
<polygon fill="black" stroke="black" points="695.78,-168.79 699.28,-178.79 702.78,-168.79 695.78,-168.79"/>
</g>
<!-- MarkdownPipe  -->
<g id="node13" class="node">
<title>MarkdownPipe </title>
<polygon fill="#fb8072" stroke="black" points="649.81,-214.8 544.19,-214.8 544.19,-178.8 649.81,-178.8 649.81,-214.8"/>
<text text-anchor="middle" x="597" y="-192.6" font-family="Times,serif" font-size="14.00">MarkdownPipe </text>
</g>
<!-- PipesModule&#45;&gt;MarkdownPipe  -->
<g id="edge12" class="edge">
<title>PipesModule&#45;&gt;MarkdownPipe </title>
<path fill="none" stroke="black" stroke-dasharray="5,2" d="M498.14,-145.8C546.09,-145.8 615.05,-145.8 615.05,-145.8 615.05,-145.8 615.05,-168.68 615.05,-168.68"/>
<polygon fill="black" stroke="black" points="611.55,-168.68 615.05,-178.68 618.55,-168.68 611.55,-168.68"/>
</g>
<!-- RemoveTrailingZerosPipe  -->
<g id="node14" class="node">
<title>RemoveTrailingZerosPipe </title>
<polygon fill="#fb8072" stroke="black" points="526.02,-214.8 357.98,-214.8 357.98,-178.8 526.02,-178.8 526.02,-214.8"/>
<text text-anchor="middle" x="442" y="-192.6" font-family="Times,serif" font-size="14.00">RemoveTrailingZerosPipe </text>
</g>
<!-- PipesModule&#45;&gt;RemoveTrailingZerosPipe  -->
<g id="edge13" class="edge">
<title>PipesModule&#45;&gt;RemoveTrailingZerosPipe </title>
<path fill="none" stroke="black" stroke-dasharray="5,2" d="M453,-149.91C453,-149.91 453,-168.79 453,-168.79"/>
<polygon fill="black" stroke="black" points="449.5,-168.79 453,-178.79 456.5,-168.79 449.5,-168.79"/>
</g>
<!-- ShruggiePipe  -->
<g id="node15" class="node">
<title>ShruggiePipe </title>
<polygon fill="#fb8072" stroke="black" points="340.44,-214.8 245.56,-214.8 245.56,-178.8 340.44,-178.8 340.44,-214.8"/>
<text text-anchor="middle" x="293" y="-192.6" font-family="Times,serif" font-size="14.00">ShruggiePipe </text>
</g>
<!-- PipesModule&#45;&gt;ShruggiePipe  -->
<g id="edge14" class="edge">
<title>PipesModule&#45;&gt;ShruggiePipe </title>
<path fill="none" stroke="black" stroke-dasharray="5,2" d="M408.07,-144.8C357.91,-144.8 283.68,-144.8 283.68,-144.8 283.68,-144.8 283.68,-168.61 283.68,-168.61"/>
<polygon fill="black" stroke="black" points="280.18,-168.61 283.68,-178.61 287.18,-168.61 280.18,-168.61"/>
</g>
<!-- TimeAgoPipe  -->
<g id="node16" class="node">
<title>TimeAgoPipe </title>
<polygon fill="#fb8072" stroke="black" points="228.04,-214.8 129.96,-214.8 129.96,-178.8 228.04,-178.8 228.04,-214.8"/>
<text text-anchor="middle" x="179" y="-192.6" font-family="Times,serif" font-size="14.00">TimeAgoPipe </text>
</g>
<!-- PipesModule&#45;&gt;TimeAgoPipe  -->
<g id="edge15" class="edge">
<title>PipesModule&#45;&gt;TimeAgoPipe </title>
<path fill="none" stroke="black" stroke-dasharray="5,2" d="M407.9,-139.8C331.63,-139.8 185.38,-139.8 185.38,-139.8 185.38,-139.8 185.38,-168.76 185.38,-168.76"/>
<polygon fill="black" stroke="black" points="181.88,-168.76 185.38,-178.76 188.88,-168.76 181.88,-168.76"/>
</g>
<!-- ToCoinPipe  -->
<g id="node17" class="node">
<title>ToCoinPipe </title>
<polygon fill="#fb8072" stroke="black" points="111.67,-214.8 24.33,-214.8 24.33,-178.8 111.67,-178.8 111.67,-214.8"/>
<text text-anchor="middle" x="68" y="-192.6" font-family="Times,serif" font-size="14.00">ToCoinPipe </text>
</g>
<!-- PipesModule&#45;&gt;ToCoinPipe  -->
<g id="edge16" class="edge">
<title>PipesModule&#45;&gt;ToCoinPipe </title>
<path fill="none" stroke="black" stroke-dasharray="5,2" d="M407.94,-134.8C307.98,-134.8 76.38,-134.8 76.38,-134.8 76.38,-134.8 76.38,-168.53 76.38,-168.53"/>
<polygon fill="black" stroke="black" points="72.88,-168.53 76.38,-178.53 79.88,-168.53 72.88,-168.53"/>
</g>
</g>
</svg>
