<?xml version="1.0" encoding="UTF-8" standalone="no"?>
<!DOCTYPE svg PUBLIC "-//W3C//DTD SVG 1.1//EN"
 "http://www.w3.org/Graphics/SVG/1.1/DTD/svg11.dtd">
<!-- Generated by graphviz version 2.47.3 (20210619.1520)
 -->
<!-- Title: dependencies Pages: 1 -->
<svg width="408pt" height="174pt"
 viewBox="0.00 0.00 408.00 173.80" xmlns="http://www.w3.org/2000/svg" xmlns:xlink="http://www.w3.org/1999/xlink">
<g id="graph0" class="graph" transform="scale(1 1) rotate(0) translate(4 169.8)">
<title>dependencies</title>
<polygon fill="white" stroke="transparent" points="-4,4 -4,-169.8 404,-169.8 404,4 -4,4"/>
<text text-anchor="middle" x="200" y="-8.2" font-family="sans-serif" font-size="14.00">dependencies</text>
<g id="clust1" class="cluster">
<title>cluster_RootModule</title>
<polygon fill="none" stroke="black" stroke-dasharray="1,5" points="8,-32.8 8,-157.8 392,-157.8 392,-32.8 8,-32.8"/>
</g>
<g id="clust4" class="cluster">
<title>cluster_RootModule_imports</title>
<polygon fill="none" stroke="black" points="148,-40.8 148,-92.8 384,-92.8 384,-40.8 148,-40.8"/>
</g>
<g id="clust2" class="cluster">
<title>cluster_RootModule_declarations</title>
<polygon fill="none" stroke="black" points="16,-40.8 16,-92.8 140,-92.8 140,-40.8 16,-40.8"/>
</g>
<!-- RootComponent -->
<g id="node1" class="node">
<title>RootComponent</title>
<polygon fill="#ffffb3" stroke="black" points="132.06,-84.8 23.94,-84.8 23.94,-48.8 132.06,-48.8 132.06,-84.8"/>
<text text-anchor="middle" x="78" y="-62.6" font-family="Times,serif" font-size="14.00">RootComponent</text>
</g>
<!-- RootModule -->
<g id="node2" class="node">
<title>RootModule</title>
<polygon fill="#8dd3c7" stroke="black" points="247.28,-149.8 244.28,-153.8 223.28,-153.8 220.28,-149.8 160.72,-149.8 160.72,-113.8 247.28,-113.8 247.28,-149.8"/>
<text text-anchor="middle" x="204" y="-127.6" font-family="Times,serif" font-size="14.00">RootModule</text>
</g>
<!-- RootComponent&#45;&gt;RootModule -->
<g id="edge1" class="edge">
<title>RootComponent&#45;&gt;RootModule</title>
<path fill="none" stroke="black" d="M78,-84.91C78,-104.14 78,-131.8 78,-131.8 78,-131.8 150.64,-131.8 150.64,-131.8"/>
<polygon fill="black" stroke="black" points="150.64,-135.3 160.64,-131.8 150.64,-128.3 150.64,-135.3"/>
</g>
<!-- ConsoleModule -->
<g id="node3" class="node">
<title>ConsoleModule</title>
<polygon fill="#8dd3c7" stroke="black" points="375.94,-84.8 372.94,-88.8 351.94,-88.8 348.94,-84.8 270.06,-84.8 270.06,-48.8 375.94,-48.8 375.94,-84.8"/>
<text text-anchor="middle" x="323" y="-62.6" font-family="Times,serif" font-size="14.00">ConsoleModule</text>
</g>
<!-- ConsoleModule&#45;&gt;RootModule -->
<g id="edge2" class="edge">
<title>ConsoleModule&#45;&gt;RootModule</title>
<path fill="none" stroke="black" d="M323,-84.91C323,-104.14 323,-131.8 323,-131.8 323,-131.8 257.3,-131.8 257.3,-131.8"/>
<polygon fill="black" stroke="black" points="257.3,-128.3 247.3,-131.8 257.3,-135.3 257.3,-128.3"/>
</g>
<!-- WalletModule -->
<g id="node4" class="node">
<title>WalletModule</title>
<polygon fill="#8dd3c7" stroke="black" points="252.37,-84.8 249.37,-88.8 228.37,-88.8 225.37,-84.8 155.63,-84.8 155.63,-48.8 252.37,-48.8 252.37,-84.8"/>
<text text-anchor="middle" x="204" y="-62.6" font-family="Times,serif" font-size="14.00">WalletModule</text>
</g>
<!-- WalletModule&#45;&gt;RootModule -->
<g id="edge3" class="edge">
<title>WalletModule&#45;&gt;RootModule</title>
<path fill="none" stroke="black" d="M204,-84.91C204,-84.91 204,-103.79 204,-103.79"/>
<polygon fill="black" stroke="black" points="200.5,-103.79 204,-113.79 207.5,-103.79 200.5,-103.79"/>
</g>
</g>
</svg>
