<?xml version="1.0" encoding="UTF-8" standalone="no"?>
<!DOCTYPE svg PUBLIC "-//W3C//DTD SVG 1.1//EN"
 "http://www.w3.org/Graphics/SVG/1.1/DTD/svg11.dtd">
<!-- Generated by graphviz version 2.47.3 (20210619.1520)
 -->
<!-- Title: dependencies Pages: 1 -->
<svg width="342pt" height="247pt"
 viewBox="0.00 0.00 342.00 246.80" xmlns="http://www.w3.org/2000/svg" xmlns:xlink="http://www.w3.org/1999/xlink">
<g id="graph0" class="graph" transform="scale(1 1) rotate(0) translate(4 242.8)">
<title>dependencies</title>
<polygon fill="white" stroke="transparent" points="-4,4 -4,-242.8 338,-242.8 338,4 -4,4"/>
<text text-anchor="middle" x="167" y="-8.2" font-family="sans-serif" font-size="14.00">dependencies</text>
<g id="clust1" class="cluster">
<title>cluster_PluginsModule</title>
<polygon fill="none" stroke="black" stroke-dasharray="1,5" points="8,-32.8 8,-230.8 326,-230.8 326,-32.8 8,-32.8"/>
</g>
<g id="clust5" class="cluster">
<title>cluster_PluginsModule_exports</title>
<polygon fill="none" stroke="black" points="93,-170.8 93,-222.8 235,-222.8 235,-170.8 93,-170.8"/>
</g>
<g id="clust7" class="cluster">
<title>cluster_PluginsModule_providers</title>
<polygon fill="none" stroke="black" points="164,-40.8 164,-92.8 318,-92.8 318,-40.8 164,-40.8"/>
</g>
<g id="clust2" class="cluster">
<title>cluster_PluginsModule_declarations</title>
<polygon fill="none" stroke="black" points="16,-40.8 16,-92.8 156,-92.8 156,-40.8 16,-40.8"/>
</g>
<!-- PluginsComponent -->
<g id="node1" class="node">
<title>PluginsComponent</title>
<polygon fill="#ffffb3" stroke="black" points="147.84,-84.8 24.16,-84.8 24.16,-48.8 147.84,-48.8 147.84,-84.8"/>
<text text-anchor="middle" x="86" y="-62.6" font-family="Times,serif" font-size="14.00">PluginsComponent</text>
</g>
<!-- PluginsModule -->
<g id="node2" class="node">
<title>PluginsModule</title>
<polygon fill="#8dd3c7" stroke="black" points="214.56,-149.8 211.56,-153.8 190.56,-153.8 187.56,-149.8 113.44,-149.8 113.44,-113.8 214.56,-113.8 214.56,-149.8"/>
<text text-anchor="middle" x="164" y="-127.6" font-family="Times,serif" font-size="14.00">PluginsModule</text>
</g>
<!-- PluginsComponent&#45;&gt;PluginsModule -->
<g id="edge1" class="edge">
<title>PluginsComponent&#45;&gt;PluginsModule</title>
<path fill="none" stroke="black" d="M130.45,-84.91C130.45,-84.91 130.45,-103.79 130.45,-103.79"/>
<polygon fill="black" stroke="black" points="126.95,-103.79 130.45,-113.79 133.95,-103.79 126.95,-103.79"/>
</g>
<!-- PluginsComponent  -->
<g id="node3" class="node">
<title>PluginsComponent </title>
<polygon fill="#fb8072" stroke="black" points="227.34,-214.8 100.66,-214.8 100.66,-178.8 227.34,-178.8 227.34,-214.8"/>
<text text-anchor="middle" x="164" y="-192.6" font-family="Times,serif" font-size="14.00">PluginsComponent </text>
</g>
<!-- PluginsModule&#45;&gt;PluginsComponent  -->
<g id="edge2" class="edge">
<title>PluginsModule&#45;&gt;PluginsComponent </title>
<path fill="none" stroke="black" stroke-dasharray="5,2" d="M164,-149.91C164,-149.91 164,-168.79 164,-168.79"/>
<polygon fill="black" stroke="black" points="160.5,-168.79 164,-178.79 167.5,-168.79 160.5,-168.79"/>
</g>
<!-- PluginsService -->
<g id="node4" class="node">
<title>PluginsService</title>
<ellipse fill="#fdb462" stroke="black" cx="241" cy="-66.8" rx="68.94" ry="18"/>
<text text-anchor="middle" x="241" y="-62.6" font-family="Times,serif" font-size="14.00">PluginsService</text>
</g>
<!-- PluginsService&#45;&gt;PluginsModule -->
<g id="edge3" class="edge">
<title>PluginsService&#45;&gt;PluginsModule</title>
<path fill="none" stroke="black" d="M193.41,-79.95C193.41,-79.95 193.41,-103.49 193.41,-103.49"/>
<polygon fill="black" stroke="black" points="189.91,-103.49 193.41,-113.49 196.91,-103.49 189.91,-103.49"/>
</g>
</g>
</svg>
